<?xml version="1.0" standalone="no"?>
<!DOCTYPE svg PUBLIC "-//W3C//DTD SVG 20010904//EN"
 "http://www.w3.org/TR/2001/REC-SVG-20010904/DTD/svg10.dtd">
<svg version="1.0" xmlns="http://www.w3.org/2000/svg"
 width="500.000000pt" height="500.000000pt" viewBox="0 0 500.000000 500.000000"
 preserveAspectRatio="xMidYMid meet">

<g transform="translate(0.000000,500.000000) scale(0.100000,-0.100000)"
fill="#000000" stroke="none">
<path d="M2025 4216 c-56 -24 -82 -69 -130 -220 l-45 -143 -59 16 c-56 14 -62
14 -108 -5 -28 -11 -56 -32 -69 -51 -11 -17 -49 -131 -84 -254 -35 -123 -67
-231 -71 -240 -7 -13 -26 -17 -95 -18 -48 0 -104 -4 -123 -7 -102 -19 -214
-113 -251 -210 -20 -54 -20 -72 -20 -929 0 -852 1 -876 20 -927 27 -70 79
-140 138 -183 95 -70 43 -67 1097 -70 523 -2 1081 0 1240 4 269 6 293 8 338
29 99 45 171 122 208 226 16 42 19 80 20 214 l0 163 27 10 c15 6 38 20 50 32
50 46 52 59 52 337 0 303 -3 315 -79 357 l-46 26 -2 324 c-1 231 -6 334 -15
361 -33 97 -116 185 -207 219 -25 9 -47 17 -48 18 -1 0 6 30 17 66 25 82 25
112 -2 160 -25 45 -15 40 -333 167 -318 127 -741 299 -780 316 -114 52 -565
226 -585 226 -14 -1 -39 -7 -55 -14z m228 -189 l158 -63 -23 -20 c-13 -11 -73
-57 -133 -102 l-111 -81 -39 13 c-22 8 -41 18 -42 22 -2 5 13 20 33 34 l37 24
-63 28 c-59 27 -62 30 -55 55 4 16 8 30 11 32 2 2 42 -11 88 -29 l85 -32 30
22 c17 12 31 24 31 28 0 4 -21 16 -48 26 -122 49 -152 66 -152 86 0 12 7 20
18 20 9 0 88 -29 175 -63z m447 -182 c860 -347 965 -392 968 -409 5 -26 -14
-42 -31 -27 -20 16 -173 71 -198 71 -18 0 -66 19 -359 142 -153 65 -327 137
-443 184 l-108 44 -100 -71 -101 -71 -41 12 -41 12 30 27 c17 14 59 46 93 70
34 25 75 55 89 68 15 13 34 23 42 23 9 0 99 -34 200 -75z m-835 -133 c195 -56
767 -226 813 -240 50 -16 56 -21 87 -79 l34 -63 -134 0 -135 0 0 74 0 73 -87
26 c-470 138 -537 157 -539 154 0 -1 -8 -23 -18 -50 -22 -59 -68 -96 -132
-105 -46 -7 -47 -8 -65 -62 -10 -30 -20 -69 -24 -87 -4 -23 -15 -36 -37 -47
-17 -9 -33 -14 -36 -11 -6 5 105 400 120 428 12 23 48 20 153 -11z m655 8 c37
-19 88 -76 77 -87 -3 -3 -43 7 -89 21 -46 14 -90 26 -97 26 -8 0 -11 6 -7 16
3 9 6 22 6 30 0 21 63 18 110 -6z m-379 -225 c90 -25 194 -55 232 -66 l67 -20
0 -39 0 -40 -340 0 c-187 0 -340 3 -340 8 0 4 5 23 10 42 8 30 17 38 62 55 40
15 61 32 88 68 19 26 40 45 46 43 6 -2 85 -25 175 -51z m959 -95 c74 -11 167
-24 207 -30 195 -26 249 -42 278 -84 20 -28 19 -48 -8 -136 -21 -65 -27 -75
-47 -75 -21 0 -23 5 -25 55 -3 103 -55 167 -155 189 -25 6 -129 11 -232 11
l-188 0 -26 51 -26 52 44 -6 c23 -3 104 -15 178 -27z m285 -221 c20 -24 25
-41 23 -68 l-3 -36 -67 -3 c-63 -3 -68 -1 -68 17 0 40 -98 43 -115 4 -8 -18
-18 -23 -47 -23 -21 0 -38 4 -38 9 0 5 -7 17 -16 25 -12 13 -38 16 -120 16
-102 0 -105 -1 -116 -25 -9 -21 -18 -25 -55 -25 -36 0 -43 3 -43 19 0 24 -19
31 -81 31 -44 0 -49 -3 -55 -25 -5 -21 -12 -25 -43 -25 -28 0 -38 5 -46 23 -8
18 -19 22 -67 25 -54 3 -58 2 -64 -23 -5 -21 -12 -25 -44 -25 -32 0 -39 4 -42
22 -5 34 -38 37 -38 4 0 -23 -4 -26 -38 -26 -32 0 -41 5 -50 25 -11 24 -16 26
-70 23 -50 -3 -57 -6 -60 -25 -3 -19 -10 -23 -41 -23 -31 0 -40 5 -49 25 -11
24 -16 26 -70 23 -50 -3 -57 -6 -60 -25 -3 -22 -8 -23 -92 -23 -85 0 -88 1
-94 25 -8 30 15 89 41 104 12 7 280 10 860 11 l841 0 27 -31z m-1979 -36 c-3
-10 -8 -30 -12 -45 -6 -27 -9 -28 -65 -28 -64 0 -138 -21 -182 -52 -35 -25
-41 -20 -21 17 43 83 114 124 217 125 60 0 68 -2 63 -17z m2379 -16 c38 -21
104 -101 93 -112 -3 -3 -29 6 -59 19 -30 14 -71 28 -92 32 -28 5 -37 10 -33
21 4 8 9 26 12 39 8 30 28 30 79 1z m-66 -203 c62 -18 127 -73 152 -129 16
-34 19 -68 19 -232 l0 -193 -45 0 -45 0 0 51 c0 61 -13 89 -43 89 -36 0 -47
-19 -47 -82 l0 -58 -267 0 c-290 0 -333 -6 -416 -54 -61 -36 -123 -105 -155
-174 -24 -50 -27 -69 -27 -162 0 -94 3 -111 28 -165 42 -90 125 -168 209 -198
21 -7 172 -13 423 -16 l390 -6 -3 -145 c-3 -129 -6 -151 -27 -196 -25 -50 -75
-99 -128 -122 -22 -9 -305 -12 -1233 -12 -1066 0 -1209 2 -1242 16 -44 18 -85
55 -121 109 l-26 40 -3 343 -3 342 63 0 c74 0 108 18 108 57 0 39 -26 52 -103
53 l-68 0 3 63 3 62 73 5 c78 5 94 16 90 60 -4 33 -40 50 -110 50 l-58 0 0 60
0 60 694 0 c618 0 696 2 710 16 21 20 20 53 -1 76 -15 17 -50 18 -711 18
l-694 0 4 118 c3 105 7 122 28 153 31 43 39 51 72 73 69 45 49 45 1284 45
1031 1 1177 -1 1223 -15z m287 -718 c19 -27 21 -428 2 -443 -17 -14 -788 -24
-853 -12 -122 23 -198 158 -165 295 15 60 63 124 114 151 52 28 106 31 504 30
367 -2 384 -3 398 -21z"/>
<path d="M1238 2786 c-14 -32 -5 -54 29 -67 18 -7 145 -9 364 -7 358 3 369 5
369 52 0 46 -4 46 -387 46 l-363 0 -12 -24z"/>
<path d="M2096 2794 c-20 -19 -20 -35 -2 -60 14 -18 29 -19 266 -19 237 0 252
1 266 19 18 25 18 41 -2 60 -13 14 -51 16 -264 16 -213 0 -251 -2 -264 -16z"/>
<path d="M2736 2794 c-20 -19 -20 -35 -2 -60 13 -17 27 -19 109 -19 102 1 127
11 127 49 0 39 -19 46 -121 46 -75 0 -101 -4 -113 -16z"/>
<path d="M3071 2796 c-7 -8 -11 -27 -9 -42 5 -41 42 -47 284 -42 225 4 244 8
244 52 0 44 -11 46 -266 46 -198 0 -244 -3 -253 -14z"/>
<path d="M3688 2803 c-30 -8 -32 -41 -4 -82 14 -20 26 -48 26 -62 0 -47 42
-65 73 -31 10 10 17 32 17 48 -1 46 -36 113 -65 124 -15 6 -27 9 -28 9 -1 -1
-10 -3 -19 -6z"/>
<path d="M1425 2313 c-32 -8 -45 -23 -45 -53 0 -56 -13 -55 569 -55 592 0 585
-1 579 58 -5 57 -2 57 -568 56 -283 -1 -524 -4 -535 -6z"/>
<path d="M1397 2062 c-23 -26 -21 -58 5 -76 20 -14 89 -16 553 -16 464 0 533
2 553 16 27 18 29 55 4 77 -17 15 -70 17 -559 17 -510 0 -541 -1 -556 -18z"/>
<path d="M3722 1478 c-5 -7 -12 -41 -14 -75 -3 -49 -10 -68 -28 -88 -19 -20
-22 -30 -14 -42 19 -31 41 -38 68 -23 74 39 92 240 22 240 -13 0 -28 -6 -34
-12z"/>
<path d="M1240 1301 c-32 -60 4 -81 140 -81 116 0 150 12 150 54 0 41 -17 46
-152 46 -116 0 -128 -2 -138 -19z"/>
<path d="M1632 1308 c-17 -17 -15 -54 4 -72 13 -14 63 -16 392 -16 326 0 381
2 400 16 27 19 29 60 3 74 -30 15 -783 14 -799 -2z"/>
<path d="M2546 1298 c-20 -29 -20 -34 4 -58 27 -27 118 -28 151 -1 20 16 22
23 14 47 -10 28 -13 29 -82 32 -64 3 -73 1 -87 -20z"/>
<path d="M2822 1308 c-18 -18 -15 -53 6 -71 15 -14 42 -17 150 -17 141 0 162
7 162 54 0 41 -16 46 -165 46 -96 0 -145 -4 -153 -12z"/>
<path d="M3242 1308 c-19 -19 -15 -66 7 -78 25 -13 271 -13 304 -1 30 12 42
43 27 71 -10 19 -20 20 -168 20 -110 0 -162 -4 -170 -12z"/>
<path d="M3256 2166 c-56 -21 -87 -47 -113 -92 -26 -45 -30 -118 -9 -167 24
-58 113 -117 176 -117 74 0 165 70 190 145 46 139 -106 281 -244 231z m117
-126 c30 -28 27 -88 -7 -116 -30 -26 -56 -30 -89 -12 -32 17 -46 39 -46 73 0
73 88 107 142 55z"/>
</g>
</svg>
