<?xml version="1.0" standalone="no"?>
<!DOCTYPE svg PUBLIC "-//W3C//DTD SVG 20010904//EN"
 "http://www.w3.org/TR/2001/REC-SVG-20010904/DTD/svg10.dtd">
<svg version="1.0" xmlns="http://www.w3.org/2000/svg"
 width="537.000000pt" height="537.000000pt" viewBox="0 0 537.000000 537.000000"
 preserveAspectRatio="xMidYMid meet">
<metadata>
Created by potrace 1.14, written by Peter Selinger 2001-2017
</metadata>
<g transform="translate(0.000000,537.000000) scale(0.100000,-0.100000)"
fill="#000000" stroke="none">
<path d="M1500 3616 c-114 -34 -247 -109 -384 -217 -56 -45 -66 -47 -66 -16 0
35 -73 138 -127 178 -60 46 -139 75 -176 65 -22 -5 -34 -19 -55 -69 -15 -34
-126 -260 -247 -502 -240 -478 -254 -509 -326 -696 -54 -142 -120 -379 -114
-411 12 -60 171 -158 256 -158 67 0 61 -8 114 170 14 47 32 101 39 120 8 19
24 62 37 95 32 88 62 152 146 324 l76 153 171 173 c94 94 202 198 240 231 73
63 207 163 218 164 4 0 -16 -42 -43 -92 -81 -153 -285 -567 -324 -658 -95
-221 -170 -483 -152 -533 20 -60 160 -141 257 -151 50 -5 67 13 85 91 19 82
79 262 125 378 4 11 49 104 99 207 l92 186 167 170 c142 144 214 210 337 311
11 9 46 38 78 65 l58 49 -21 -54 c-12 -30 -45 -97 -74 -149 -30 -52 -66 -117
-81 -145 -40 -70 -217 -422 -237 -470 -82 -193 -115 -377 -88 -490 28 -124
107 -189 243 -202 67 -6 149 12 211 45 102 56 247 171 345 275 54 56 80 73 62
40 -5 -10 -11 -36 -14 -58 -3 -22 -8 -47 -12 -56 -24 -63 124 -176 244 -186
59 -5 81 6 88 45 5 31 80 256 118 352 20 52 74 172 120 265 70 145 93 183 157
255 116 132 327 333 438 418 30 23 60 46 65 50 59 45 83 53 61 20 -15 -23
-208 -395 -225 -433 -5 -11 -32 -69 -61 -130 -114 -242 -169 -389 -215 -579
-22 -88 -23 -101 -10 -126 45 -87 254 -176 308 -132 8 7 21 36 27 65 14 57 66
230 80 262 4 11 23 58 41 105 18 47 68 156 111 243 86 173 125 223 319 414
118 116 393 347 397 334 3 -10 -53 -132 -83 -181 -74 -118 -278 -517 -323
-630 -40 -101 -80 -234 -88 -295 -20 -148 15 -269 97 -334 72 -56 231 -63 334
-15 195 91 461 344 697 664 260 353 267 366 248 423 -16 49 -44 71 -90 70 -51
-1 -77 -23 -147 -122 -56 -81 -162 -225 -200 -272 -136 -169 -315 -329 -455
-408 l-57 -32 23 73 c13 40 31 93 40 118 16 43 135 288 156 320 5 8 39 67 75
130 36 63 70 122 75 130 33 52 149 274 205 392 27 57 29 89 11 168 -10 42 -54
124 -86 158 -59 62 -87 68 -203 47 -91 -17 -244 -98 -377 -198 -85 -65 -99
-68 -100 -22 -1 65 -103 205 -166 225 -100 33 -306 -54 -529 -223 -33 -25 -63
-43 -66 -39 -3 4 -13 28 -23 53 -20 56 -108 147 -174 180 -27 13 -66 23 -92
23 -41 1 -46 -2 -62 -34 -10 -19 -94 -189 -187 -378 -143 -289 -185 -364 -270
-485 -108 -152 -129 -179 -232 -297 -104 -118 -236 -229 -366 -308 -63 -38
-64 -36 -22 89 47 141 117 280 331 654 47 83 116 211 154 285 64 127 68 139
68 201 0 54 -6 78 -32 130 -35 71 -78 121 -123 145 -46 23 -148 7 -264 -44
-57 -24 -243 -143 -311 -197 l-31 -26 -12 47 c-15 59 -52 131 -86 167 -65 68
-116 78 -235 43z"/>
</g>
</svg>
