<?xml version="1.0" standalone="no"?>
<!DOCTYPE svg PUBLIC "-//W3C//DTD SVG 20010904//EN"
 "http://www.w3.org/TR/2001/REC-SVG-20010904/DTD/svg10.dtd">
<svg version="1.0" xmlns="http://www.w3.org/2000/svg"
 width="1024.000000pt" height="1024.000000pt" viewBox="0 0 1024.000000 1024.000000"
 preserveAspectRatio="xMidYMid meet">
<metadata>
Created by potrace 1.14, written by Peter Selinger 2001-2017
</metadata>
<g transform="translate(0.000000,1024.000000) scale(0.100000,-0.100000)"
fill="#000000" stroke="none">
<path d="M9787 8345 c2 -7 -5 -12 -19 -12 -43 -1 -49 -3 -42 -15 5 -9 3 -9 -9
1 -14 11 -18 11 -22 0 -3 -8 -16 -15 -29 -15 -18 -1 -23 2 -20 15 5 13 3 13
-6 -2 -6 -9 -16 -15 -22 -11 -6 4 -8 -2 -4 -17 3 -13 3 -18 0 -11 -3 6 -11 9
-16 6 -6 -4 -8 -2 -4 4 13 21 -27 5 -47 -19 -15 -17 -18 -19 -14 -6 5 13 3 17
-5 14 -7 -2 -12 -12 -12 -21 2 -13 -1 -14 -12 -5 -8 6 -14 8 -14 3 0 -5 -5 -2
-11 6 -9 12 -10 12 -6 -5 3 -16 -1 -20 -20 -20 -12 0 -23 5 -23 10 0 6 -5 3
-10 -5 -9 -13 -10 -13 -10 0 0 13 -1 13 -10 0 -9 -13 -11 -13 -20 0 -9 13 -10
13 -10 0 0 -9 6 -22 13 -30 6 -8 3 -7 -8 2 -11 9 -24 17 -30 18 -5 1 -9 6 -7
12 1 5 -2 7 -8 3 -6 -4 -7 -13 -1 -23 8 -15 2 -17 -49 -17 -32 0 -56 3 -55 6
5 7 -25 4 -47 -5 -9 -4 -21 -5 -26 -2 -5 3 -9 -1 -9 -9 0 -8 5 -11 10 -8 6 3
7 1 4 -5 -4 -5 -17 -8 -29 -4 -16 4 -19 2 -13 -8 5 -9 4 -11 -4 -6 -16 10 -60
15 -59 7 2 -18 -3 -31 -12 -31 -5 0 -7 8 -4 18 4 11 -1 9 -16 -8 -14 -17 -23
-21 -27 -12 -2 6 -9 12 -14 12 -6 0 -8 -4 -5 -9 4 -5 -4 -7 -16 -3 -14 3 -19
2 -14 -6 4 -7 2 -12 -4 -12 -6 0 -9 -3 -6 -8 2 -4 -17 -7 -42 -6 -26 1 -53 -3
-61 -10 -11 -8 -13 -8 -8 1 4 7 1 10 -8 9 -23 -3 -31 -16 -15 -26 11 -7 11
-10 2 -10 -7 0 -17 10 -22 23 l-9 22 0 -23 c-1 -15 -6 -22 -13 -19 -7 2 -21 0
-32 -5 -13 -7 -16 -7 -12 1 4 6 2 11 -3 11 -6 0 -11 -5 -11 -11 0 -7 -11 -4
-26 6 -15 9 -24 13 -20 7 3 -5 -1 -12 -9 -16 -8 -3 -19 3 -24 12 -9 15 -11 15
-12 -3 -1 -11 -1 -22 -1 -25 1 -8 -42 -5 -55 3 -7 4 -15 2 -19 -4 -5 -8 -3 -9
6 -4 9 5 11 4 6 -4 -6 -9 -11 -9 -24 1 -13 11 -15 10 -9 -5 5 -12 3 -16 -5
-11 -8 5 -9 1 -5 -12 7 -18 6 -18 -7 -1 -17 22 -48 23 -39 1 5 -14 3 -15 -13
-6 -15 8 -23 7 -38 -6 -15 -13 -17 -13 -11 -2 7 12 6 13 -6 3 -11 -9 -19 -9
-26 -2 -8 8 -11 6 -10 -6 1 -12 -7 -19 -23 -21 -18 -3 -21 -2 -10 5 8 5 18 7
24 4 5 -3 6 -1 2 6 -6 9 -14 8 -32 -4 -14 -9 -29 -13 -34 -10 -5 3 -11 1 -15
-4 -3 -5 -14 -8 -25 -6 -12 2 -18 0 -15 -5 6 -10 24 -8 45 5 12 7 13 6 3 -7
-7 -8 -9 -19 -5 -24 4 -4 0 -3 -9 4 -12 9 -18 9 -29 -1 -8 -8 -11 -8 -7 -1 4
7 0 14 -8 18 -8 3 -14 0 -12 -6 2 -13 -62 -18 -69 -6 -3 4 -11 8 -17 8 -7 0
-6 -4 3 -10 10 -6 6 -9 -18 -8 -20 1 -29 5 -25 12 4 6 -4 2 -17 -9 -13 -11
-20 -14 -16 -7 4 6 2 12 -3 12 -6 0 -11 -8 -11 -17 -1 -17 -2 -17 -14 0 -9 12
-16 14 -21 7 -3 -5 -11 -7 -17 -4 -7 4 -8 2 -4 -5 4 -6 11 -9 16 -6 4 3 14 -3
21 -13 12 -15 12 -16 -2 -5 -12 10 -18 10 -29 0 -10 -9 -11 -9 -6 1 9 16 -26
16 -42 0 -9 -9 -12 -9 -12 1 0 7 -5 9 -10 6 -6 -4 -8 -10 -5 -15 3 -5 0 -12
-6 -16 -7 -4 -10 -3 -6 2 3 5 -6 15 -20 21 -24 12 -25 11 -9 -6 14 -15 14 -18
1 -18 -8 0 -15 4 -15 9 0 4 -5 8 -10 8 -6 0 -8 -11 -6 -24 3 -18 1 -23 -10
-19 -8 3 -12 8 -9 12 2 4 -6 7 -18 6 -14 -1 -21 -8 -19 -18 3 -16 -13 -17 -37
-3 -10 6 -12 5 -7 -2 10 -16 -16 -15 -33 1 -11 10 -13 10 -7 0 5 -9 -1 -13
-19 -13 -18 0 -24 4 -19 13 5 8 2 8 -9 -2 -13 -10 -20 -11 -31 -2 -12 10 -17
8 -25 -7 -6 -11 -8 -22 -5 -25 3 -3 -2 -4 -11 -3 -9 1 -21 9 -26 17 -5 8 -9 9
-9 4 0 -6 8 -22 17 -35 15 -21 15 -23 1 -12 -13 10 -17 10 -22 0 -4 -9 -5 -8
-3 2 1 8 -3 16 -8 17 -6 1 -9 -7 -9 -18 1 -19 1 -19 -18 -2 -14 12 -17 13 -13
2 4 -11 -5 -14 -39 -14 -25 -1 -42 3 -40 7 3 4 0 8 -5 8 -6 0 -11 -5 -11 -12
0 -6 -3 -8 -6 -5 -4 3 -16 0 -27 -8 -15 -10 -25 -11 -40 -4 -13 8 -17 8 -13 0
4 -5 -3 -15 -14 -21 -13 -7 -20 -7 -20 0 0 5 -5 10 -11 10 -5 0 -7 -4 -4 -10
3 -5 1 -10 -5 -10 -6 0 -8 -5 -4 -12 4 -6 3 -8 -4 -4 -5 3 -12 1 -14 -6 -3 -9
-6 -9 -12 0 -4 7 -2 12 4 12 6 0 9 4 5 10 -3 5 -12 7 -20 4 -8 -4 -12 -10 -9
-15 3 -5 2 -9 -3 -10 -4 0 -18 -2 -30 -3 -13 -2 -23 2 -23 8 0 6 -4 5 -9 -2
-5 -9 -20 -12 -40 -9 -18 3 -29 1 -25 -4 3 -5 9 -7 13 -5 4 3 13 0 21 -5 10
-6 4 -8 -19 -4 -31 5 -33 4 -20 -11 11 -14 11 -16 1 -10 -18 11 -114 17 -108
7 3 -4 -1 -8 -9 -8 -8 0 -12 4 -9 9 3 4 1 8 -4 8 -6 0 -13 -7 -16 -16 -4 -9
-11 -12 -18 -7 -22 13 -37 12 -50 -5 -11 -15 -11 -15 2 -5 11 8 20 9 30 1 12
-8 12 -9 -2 -4 -10 3 -20 1 -24 -5 -4 -6 -11 -6 -20 2 -13 11 -19 3 -16 -22 1
-4 -12 -5 -28 -3 -16 2 -30 -2 -33 -9 -2 -6 -2 -1 0 13 3 21 2 22 -7 8 -6 -10
-18 -18 -26 -18 -9 0 -13 -5 -9 -12 4 -7 -1 -4 -9 6 -9 11 -16 15 -16 9 0 -6
-9 -13 -21 -16 -12 -3 -18 -10 -14 -16 4 -7 0 -8 -10 -4 -13 4 -14 7 -3 14 9
6 6 8 -10 6 -17 -1 -21 -6 -16 -22 4 -14 3 -16 -4 -6 -7 9 -12 10 -16 2 -4 -6
-13 -8 -19 -4 -21 13 -39 13 -28 -1 8 -10 3 -11 -21 -8 -18 3 -28 1 -25 -5 3
-5 0 -10 -8 -10 -8 0 -12 4 -9 9 3 4 0 8 -5 8 -6 0 -11 -7 -11 -15 0 -13 -4
-14 -20 -5 -15 8 -20 8 -20 -2 0 -10 -2 -10 -9 1 -7 10 -10 10 -13 1 -3 -10
-9 -10 -28 0 -22 12 -24 12 -12 -2 10 -13 10 -18 1 -24 -7 -4 -9 -3 -6 3 4 6
0 13 -8 16 -9 4 -12 1 -9 -7 3 -8 0 -17 -7 -22 -7 -4 -10 -3 -6 3 4 6 0 13 -8
17 -8 3 -14 2 -14 -2 3 -20 -3 -23 -18 -11 -10 8 -14 9 -10 2 4 -6 3 -14 -3
-18 -5 -3 -10 2 -11 12 0 10 -3 13 -6 6 -2 -7 -11 -13 -19 -13 -9 0 -12 4 -9
10 3 6 -1 7 -10 4 -9 -4 -13 -9 -11 -12 3 -3 0 -10 -7 -16 -7 -6 -11 -10 -9
-9 2 1 10 -4 17 -10 14 -14 8 -40 -8 -30 -6 3 -7 1 -3 -6 4 -6 11 -9 16 -6 5
3 15 -4 23 -15 7 -11 17 -17 20 -13 7 7 11 -10 8 -37 -2 -13 -1 -13 8 0 5 8 8
17 5 21 -2 4 1 11 7 15 8 4 9 3 5 -4 -4 -7 -2 -12 5 -12 10 0 10 -3 1 -12 -17
-17 -15 -33 3 -18 9 7 18 10 22 6 3 -3 0 -6 -8 -6 -12 0 -12 -2 0 -9 13 -8 13
-12 0 -27 -8 -10 -9 -15 -2 -11 6 4 18 0 27 -8 9 -9 21 -15 28 -14 26 3 39 -1
33 -11 -6 -10 7 -14 35 -10 10 1 9 -3 -5 -13 -18 -14 -21 -13 -36 10 -10 15
-19 21 -23 14 -4 -6 -1 -11 6 -11 10 0 9 -3 -2 -11 -13 -9 -13 -10 2 -6 9 3
19 -1 22 -9 5 -12 10 -13 28 -3 22 12 22 11 8 -6 -9 -11 -10 -16 -2 -11 7 4
12 2 12 -4 0 -6 5 -8 13 -4 8 5 8 2 -2 -9 -16 -20 -2 -23 18 -4 11 10 13 10 7
0 -4 -7 -2 -13 3 -13 6 0 11 -4 11 -10 0 -5 -8 -6 -17 -3 -15 6 -16 5 -3 -9 9
-10 19 -13 25 -7 14 13 27 11 18 -3 -4 -7 -9 -22 -10 -33 -3 -16 -1 -17 7 -5
7 11 10 11 10 2 0 -7 5 -10 11 -7 6 5 4 11 -7 19 -15 11 -15 13 0 13 9 0 16
-4 16 -9 0 -5 6 -6 13 -2 10 6 10 4 0 -7 -22 -23 -16 -42 12 -37 14 3 23 1 22
-6 -1 -6 7 -10 18 -8 15 2 16 0 7 -6 -11 -7 -10 -10 3 -16 9 -3 13 -11 10 -17
-4 -6 0 -9 11 -7 13 2 24 -8 36 -32 10 -19 18 -29 18 -21 0 8 3 11 6 8 4 -4 1
-13 -6 -22 -9 -11 -9 -15 -1 -15 7 0 9 -5 5 -12 -4 -7 -3 -8 5 -4 6 4 9 11 6
16 -3 5 0 12 6 16 8 5 9 3 4 -6 -6 -10 -4 -12 10 -6 18 6 18 6 2 -12 -17 -18
-16 -19 13 -17 16 1 30 -3 30 -8 0 -5 -9 -7 -19 -4 -23 6 -18 -18 5 -27 8 -3
13 -2 9 3 -6 11 22 8 32 -4 4 -4 2 -5 -4 -1 -8 5 -13 1 -13 -9 0 -11 5 -15 15
-11 8 3 15 2 16 -2 0 -4 2 -15 4 -25 2 -9 0 -15 -5 -12 -4 3 -10 -4 -13 -16
-4 -16 -3 -18 8 -9 10 8 15 8 21 -1 4 -7 3 -9 -3 -6 -6 4 -13 0 -17 -8 -3 -8
0 -15 6 -15 6 0 8 -3 5 -6 -4 -4 -14 -1 -24 7 -14 12 -16 12 -8 0 6 -11 4 -13
-9 -8 -14 6 -17 3 -12 -9 4 -11 2 -15 -8 -11 -10 4 -13 1 -10 -8 3 -8 13 -11
22 -9 12 4 11 2 -2 -7 -15 -9 -21 -9 -24 -1 -7 22 -19 12 -17 -13 3 -24 -7
-38 -33 -41 -6 -1 -9 3 -6 9 3 7 -1 4 -10 -6 -8 -11 -13 -28 -11 -38 2 -11 0
-17 -6 -14 -5 4 -7 11 -4 16 4 5 1 9 -6 9 -6 0 -9 -8 -6 -19 3 -14 1 -18 -9
-14 -8 3 -11 10 -7 17 3 6 2 7 -2 3 -11 -10 -16 -39 -5 -32 4 3 14 -3 21 -13
13 -15 12 -16 -3 -3 -17 12 -23 9 -19 -12 1 -5 -3 -6 -9 -2 -6 3 -8 11 -5 16
4 5 1 9 -5 9 -6 0 -8 5 -4 12 4 7 3 8 -4 4 -6 -4 -8 -14 -5 -23 5 -12 3 -14
-8 -9 -8 4 -6 1 4 -7 16 -13 16 -15 2 -21 -9 -3 -13 -2 -10 4 3 6 1 10 -4 10
-6 0 -11 -7 -11 -15 0 -8 5 -15 12 -15 6 0 9 -3 6 -6 -4 -3 -15 -1 -25 4 -16
9 -19 7 -20 -10 -2 -27 -14 -39 -41 -41 -11 0 -18 -5 -16 -9 3 -5 10 -6 15 -3
5 4 9 2 9 -2 0 -5 -10 -13 -22 -18 -13 -6 -22 -18 -22 -28 2 -17 0 -17 -15 -3
-22 20 -36 8 -16 -14 13 -14 13 -17 0 -17 -8 0 -12 4 -9 9 3 4 0 8 -5 8 -6 0
-11 -7 -11 -15 0 -8 5 -15 12 -15 6 0 9 -2 6 -5 -9 -10 -38 7 -31 18 3 6 1 7
-6 3 -8 -6 -9 -12 -2 -20 11 -13 -4 -36 -24 -36 -5 0 -3 5 5 10 11 7 11 10 2
10 -7 0 -10 5 -6 12 5 7 3 8 -5 4 -7 -5 -10 -10 -7 -13 10 -10 -15 -44 -26
-37 -7 4 -8 2 -4 -5 5 -8 12 -9 20 -2 7 6 17 6 26 1 16 -10 12 -12 -35 -14
-24 -1 -31 -8 -39 -34 -5 -18 -13 -32 -18 -32 -5 0 -7 4 -3 9 3 5 2 12 -3 15
-4 2 -9 -5 -9 -16 -1 -12 -7 -26 -14 -32 -9 -8 -10 -8 -5 1 7 13 -19 12 -31
-2 -4 -4 -3 -5 3 -2 7 4 15 0 18 -9 4 -10 2 -13 -6 -8 -8 5 -9 1 -5 -12 7 -18
7 -18 -8 0 -8 11 -15 14 -15 7 0 -7 -5 -9 -10 -6 -6 4 -7 11 -4 17 5 7 2 8 -6
3 -10 -6 -8 -12 8 -26 18 -14 19 -18 6 -23 -8 -3 -12 -2 -9 4 3 6 1 10 -4 10
-6 0 -11 -7 -11 -15 0 -8 5 -15 12 -15 6 0 9 -2 6 -5 -10 -10 -38 7 -31 19 3
6 2 7 -3 3 -4 -4 -9 -18 -9 -29 0 -12 -7 -23 -15 -25 -13 -4 -13 -3 0 6 11 8
12 11 2 11 -8 0 -10 5 -6 13 4 6 3 8 -1 4 -14 -12 -15 -40 -2 -56 10 -12 9
-13 -2 -7 -8 5 -17 3 -23 -5 -8 -11 -9 -10 -4 4 3 11 0 17 -10 17 -8 0 -12 -4
-9 -10 3 -5 1 -10 -5 -10 -6 0 -8 -4 -5 -10 3 -5 1 -10 -5 -10 -6 0 -8 -5 -4
-12 4 -7 3 -8 -5 -4 -6 4 -9 12 -6 17 4 5 1 9 -4 9 -6 0 -11 -7 -11 -15 0 -8
-4 -15 -10 -15 -5 0 -10 -6 -10 -14 0 -8 -5 -18 -12 -22 -6 -4 -8 -3 -5 3 4 6
0 13 -8 16 -11 5 -12 1 -5 -18 6 -16 6 -27 -2 -31 -6 -4 -8 -3 -4 4 4 6 -1 10
-13 9 -16 -1 -18 -4 -8 -16 10 -12 9 -13 -9 -3 -19 10 -21 9 -16 -16 4 -26 4
-26 -12 -7 -15 19 -16 19 -6 -8 8 -22 7 -26 -3 -20 -20 12 -37 12 -34 0 1 -7
-4 -11 -10 -10 -7 2 -13 -2 -13 -7 0 -12 6 -13 29 -1 13 7 18 6 18 -4 0 -8 -4
-12 -9 -8 -5 3 -17 -5 -25 -17 -11 -15 -23 -21 -40 -17 -17 3 -21 1 -14 -6 22
-22 10 -29 -16 -11 -22 14 -25 14 -15 2 15 -19 0 -34 -20 -22 -9 5 -8 2 1 -9
13 -16 14 -16 26 -1 10 14 13 15 20 3 5 -8 5 -11 0 -7 -4 4 -16 -4 -27 -17
-11 -14 -25 -22 -33 -18 -20 7 -19 -7 3 -24 9 -8 11 -11 3 -7 -22 11 -62 13
-55 3 3 -5 9 -7 14 -4 5 3 11 1 15 -4 3 -6 -5 -8 -19 -5 -21 3 -23 1 -19 -18
5 -23 5 -23 -11 -3 -15 19 -16 19 -6 -9 9 -24 8 -27 -3 -17 -11 9 -17 8 -27
-4 -7 -8 -16 -12 -21 -9 -9 5 -13 -8 -10 -38 1 -10 -3 -18 -9 -18 -6 0 -8 -5
-4 -12 4 -7 3 -8 -5 -4 -9 6 -9 11 -1 21 8 9 8 15 0 20 -6 4 -9 1 -8 -7 2 -7
-5 -12 -15 -12 -17 2 -17 1 -1 -17 16 -17 16 -19 0 -25 -10 -4 -15 -12 -12
-20 3 -8 -2 -11 -14 -9 -11 2 -22 0 -25 -6 -4 -5 -1 -9 6 -9 7 0 5 -6 -6 -13
-10 -8 -29 -13 -42 -11 -13 1 -21 -2 -17 -7 3 -5 9 -7 14 -4 5 3 11 1 15 -4 3
-6 -5 -8 -19 -5 -13 2 -29 -2 -36 -11 -7 -8 -17 -12 -23 -8 -6 3 -7 1 -3 -6 4
-6 12 -9 17 -6 5 4 9 -1 9 -10 0 -9 -4 -13 -10 -10 -5 3 -18 1 -28 -4 -13 -7
-22 -7 -29 0 -6 6 -10 5 -10 -5 0 -8 4 -13 9 -10 4 3 8 0 8 -6 0 -7 -6 -10
-14 -7 -7 3 -18 1 -24 -5 -6 -6 -12 -6 -17 1 -3 6 -1 10 6 9 6 -2 14 3 17 11
2 8 0 11 -6 7 -14 -8 -43 4 -36 15 3 5 -4 9 -15 9 -12 0 -21 4 -21 10 0 5 6 8
13 6 6 -1 9 -1 4 1 -4 3 -4 10 0 16 3 7 3 9 -2 5 -4 -4 -14 -3 -21 3 -9 8 -11
5 -8 -13 l5 -23 -11 24 c-8 19 -7 26 7 37 15 12 15 13 2 8 -11 -3 -23 3 -32
16 -8 12 -20 18 -29 15 -10 -4 -17 1 -21 14 -3 12 -12 21 -20 21 -8 0 -17 7
-21 15 -3 9 -12 12 -23 9 -17 -5 -17 -5 0 6 15 10 21 8 32 -7 9 -11 14 -13 15
-5 0 7 -13 20 -30 30 -24 15 -27 21 -17 32 10 12 9 12 -5 1 -17 -13 -23 -8
-18 14 1 6 -2 7 -6 3 -4 -4 -14 -2 -22 5 -13 10 -15 9 -8 -3 4 -8 1 -7 -8 3
-8 11 -12 25 -10 32 3 7 0 16 -7 21 -9 5 -10 2 -6 -9 3 -9 1 -19 -5 -23 -7 -4
-8 -3 -4 4 4 7 3 12 -3 12 -5 0 -11 -6 -14 -12 -3 -7 -4 -3 -4 9 1 12 6 19 12
16 5 -3 5 0 -2 7 -10 11 -15 11 -29 -1 -10 -8 -15 -9 -11 -2 4 6 4 13 0 16 -5
2 -2 2 5 1 6 -2 12 1 12 7 0 6 5 7 10 4 6 -3 10 -1 10 5 0 6 -8 10 -17 8 -12
-2 -17 2 -15 12 2 8 0 12 -4 8 -4 -4 -14 -2 -23 4 -10 8 -9 4 3 -10 11 -12 15
-22 10 -22 -14 0 -37 42 -27 49 4 3 -3 17 -16 30 -13 13 -22 17 -19 9 4 -9 -1
-14 -13 -15 -10 -1 -19 3 -19 8 0 6 5 7 10 4 19 -12 10 8 -15 31 -14 13 -31
22 -38 20 -6 -1 -9 -1 -4 1 14 9 -4 22 -21 16 -11 -4 -9 1 6 13 l24 20 -23 1
c-19 2 -20 0 -9 -7 8 -5 11 -10 5 -10 -14 0 -63 39 -50 40 6 0 15 -4 21 -10 6
-6 15 -5 24 1 13 9 13 10 0 6 -8 -2 -26 5 -39 17 -14 12 -21 15 -17 6 4 -8 1
-7 -8 3 -8 11 -12 25 -10 32 3 7 0 16 -7 21 -9 5 -10 2 -6 -9 3 -9 2 -19 -4
-22 -5 -4 -8 -1 -7 7 2 7 -3 12 -11 10 -8 -2 -11 3 -8 13 8 18 -4 20 -22 3 -9
-9 -12 -9 -7 -1 3 6 3 13 -1 16 -5 2 -2 2 5 1 6 -2 12 1 12 7 0 6 4 7 10 4 6
-3 10 -1 10 5 0 6 -8 10 -17 8 -10 -2 -17 3 -16 10 3 12 -9 16 -34 13 -7 -1
-13 3 -13 9 0 5 4 10 8 10 5 0 9 7 9 16 0 15 -2 15 -13 -1 -10 -13 -16 -15
-31 -5 -17 11 -17 11 2 6 19 -6 19 -5 2 8 -14 11 -15 15 -5 20 7 3 3 3 -9 0
-13 -3 -23 -1 -23 5 0 6 5 11 11 11 5 0 7 5 4 10 -3 6 -11 10 -16 10 -6 0 -7
-4 -4 -10 3 -5 2 -10 -4 -10 -5 0 -13 9 -16 20 -3 11 -13 20 -21 20 -8 0 -14
4 -14 9 0 15 18 23 23 11 4 -7 5 -6 3 1 -1 6 -5 10 -10 9 -5 -1 -13 4 -18 12
-8 10 -9 9 -5 -3 3 -9 1 -22 -4 -30 -8 -12 -10 -12 -8 1 3 33 -2 45 -11 25 -7
-16 -9 -17 -9 -3 -1 9 -11 24 -23 33 -20 13 -21 18 -10 35 7 12 8 20 2 20 -5
0 -10 -4 -10 -10 0 -5 -5 -10 -11 -10 -6 0 -9 7 -6 15 4 8 2 17 -4 20 -5 4 -7
11 -4 16 4 5 1 9 -5 9 -7 0 -10 -7 -7 -14 4 -10 1 -13 -8 -9 -8 3 -12 9 -9 14
3 5 -4 9 -15 9 -12 0 -21 4 -21 10 0 5 6 8 13 6 6 -1 9 -1 4 1 -4 3 -4 10 0
16 3 7 3 9 -2 5 -4 -4 -14 -3 -21 3 -9 8 -11 5 -8 -13 4 -22 4 -22 -6 1 -8 18
-7 26 1 31 13 9 -38 28 -64 24 -9 -1 -15 2 -11 7 3 5 10 7 15 4 5 -4 9 -1 9 4
0 6 -4 11 -9 11 -5 0 -16 16 -25 35 -18 37 -29 46 -24 19 2 -10 -3 -18 -10
-20 -7 -1 -8 0 -2 3 17 8 1 23 -18 16 -11 -4 -8 1 7 14 18 15 20 20 8 20 -9 0
-14 -4 -11 -9 3 -4 0 -8 -5 -8 -12 0 -15 26 -3 33 4 2 1 2 -6 1 -7 -2 -17 8
-22 22 -9 23 -12 24 -27 13 -15 -12 -16 -12 -10 3 3 10 2 20 -4 23 -5 4 -7 10
-4 15 6 9 -14 8 -31 -2 -6 -4 -20 -1 -30 8 -18 14 -18 15 4 4 27 -13 28 -6 2
22 -10 12 -17 24 -15 28 3 5 -2 11 -11 14 -15 6 -15 4 -1 -17 12 -19 13 -24 2
-24 -8 0 -12 4 -9 9 3 4 -2 8 -11 8 -10 0 -13 5 -9 13 5 8 2 8 -9 -2 -14 -11
-20 -11 -32 -1 -13 11 -14 10 -9 -4 3 -9 11 -16 17 -16 6 0 8 -3 4 -6 -3 -3
-12 -2 -19 2 -19 12 -39 14 -32 3 3 -5 9 -7 13 -5 4 3 8 -1 8 -9 0 -10 -5 -11
-18 -4 -21 11 -28 3 -24 -31 2 -20 -2 -26 -17 -26 -17 0 -18 2 -3 12 14 11 14
12 0 18 -9 3 -13 2 -10 -3 3 -5 1 -13 -5 -16 -8 -5 -7 -11 1 -21 10 -12 9 -13
-6 -7 -14 5 -17 3 -12 -10 4 -11 2 -14 -8 -10 -8 3 -13 8 -10 12 2 4 -3 8 -11
8 -11 0 -9 -6 7 -23 15 -16 17 -24 8 -29 -7 -5 -10 -4 -6 2 4 6 0 13 -8 17 -8
3 -17 1 -20 -5 -4 -5 -11 -7 -16 -3 -5 3 -9 2 -8 -3 1 -4 0 -11 -1 -15 -1 -5
-3 -18 -4 -30 -1 -19 -6 -22 -30 -20 -26 3 -27 2 -12 -13 21 -22 21 -31 -1
-14 -15 12 -16 12 -10 -4 5 -13 3 -16 -6 -10 -18 11 -38 13 -31 2 3 -5 9 -7
14 -4 12 8 6 -23 -8 -37 -9 -9 -12 -9 -12 0 0 7 6 12 13 12 8 0 7 4 -3 10 -10
7 -18 5 -26 -5 -6 -8 -15 -11 -19 -7 -5 4 -5 2 -2 -5 4 -6 -9 -24 -31 -42 -20
-17 -31 -30 -24 -31 6 0 12 5 12 10 0 6 5 10 11 10 8 0 9 -4 0 -13 -6 -8 -8
-17 -4 -20 10 -10 -6 -8 -28 3 -11 6 -19 7 -18 3 1 -4 0 -10 -1 -13 -8 -21 -6
-40 3 -40 7 0 6 -4 -2 -9 -8 -5 -21 -7 -29 -3 -11 4 -14 1 -10 -10 5 -12 0
-15 -22 -13 -21 2 -27 -1 -23 -12 4 -11 8 -11 13 -3 5 8 9 8 13 -3 4 -11 -2
-14 -25 -13 -23 1 -32 -4 -34 -18 -1 -10 -8 -24 -15 -30 -9 -8 -10 -8 -5 2 4
6 2 12 -4 12 -7 0 -14 -9 -17 -21 -4 -14 -12 -19 -24 -16 -10 3 -17 0 -16 -5
1 -6 -4 -13 -12 -16 -10 -3 -11 0 -5 9 7 12 5 12 -9 0 -14 -11 -15 -16 -5 -29
10 -12 11 -16 0 -19 -6 -3 -10 -9 -7 -14 4 -5 -1 -6 -10 -3 -14 6 -14 8 2 20
17 12 17 13 -3 11 -20 -1 -27 -21 -15 -42 3 -6 -2 -2 -11 8 -20 22 -23 15 -7
-15 7 -13 7 -18 1 -14 -6 3 -13 -3 -17 -14 -4 -11 -10 -18 -15 -15 -4 3 -10
-2 -14 -10 -3 -8 -11 -15 -18 -15 -10 0 -10 2 0 9 11 7 11 9 -1 14 -11 4 -14
-1 -12 -18 2 -19 -5 -28 -26 -37 -16 -7 -29 -17 -29 -21 0 -5 4 -5 10 -2 6 4
7 -1 3 -11 -6 -15 -7 -15 -15 0 -8 13 -13 15 -24 5 -7 -6 -11 -16 -7 -22 4 -6
0 -8 -9 -5 -8 4 -15 0 -15 -8 0 -7 4 -11 9 -8 4 3 5 -3 1 -12 -6 -16 -7 -16
-18 0 -15 20 -22 20 -22 1 0 -8 4 -12 9 -9 10 6 11 -10 1 -19 -3 -4 -11 -2
-18 3 -9 7 -11 2 -10 -20 1 -25 -1 -28 -13 -18 -11 9 -13 9 -12 -3 4 -28 0
-40 -12 -33 -8 5 -9 2 -5 -9 6 -16 4 -15 -21 0 l-27 18 18 -27 c15 -25 16 -27
0 -21 -12 5 -14 3 -8 -7 5 -9 4 -11 -4 -6 -6 4 -9 11 -6 16 3 5 1 11 -3 14 -5
3 -9 -5 -9 -17 -1 -39 -3 -50 -9 -44 -3 3 -17 -6 -30 -20 -13 -14 -24 -21 -24
-15 0 6 7 15 16 20 15 8 14 10 -2 16 -10 4 -16 4 -12 1 3 -4 0 -18 -8 -33 -9
-18 -10 -30 -3 -38 7 -8 6 -15 -2 -20 -7 -4 -9 -3 -5 4 3 6 2 13 -3 16 -5 4
-8 19 -5 34 3 19 2 23 -5 12 -5 -8 -8 -17 -5 -21 2 -4 0 -10 -6 -14 -5 -3 -10
-12 -10 -18 0 -7 4 -6 10 3 5 8 10 11 10 5 0 -5 -5 -17 -10 -25 -5 -8 -10 -10
-10 -4 0 5 -7 19 -15 30 -11 14 -14 15 -9 3 3 -10 0 -20 -5 -24 -6 -3 -8 -11
-5 -17 5 -7 2 -9 -8 -6 -8 4 -15 0 -15 -8 0 -7 4 -11 9 -8 4 3 5 -3 1 -12 -6
-16 -7 -16 -18 0 -15 20 -22 20 -22 1 0 -8 4 -12 9 -9 4 3 8 1 8 -5 0 -5 -5
-13 -11 -16 -6 -4 -8 -13 -5 -21 3 -9 0 -11 -11 -7 -12 5 -14 3 -8 -7 6 -9 4
-11 -4 -6 -9 6 -8 12 4 26 11 12 13 20 5 25 -6 4 -9 1 -8 -7 2 -7 -2 -12 -9
-11 -6 1 -10 -8 -8 -22 1 -14 -3 -32 -9 -41 -10 -13 -12 -13 -12 5 0 11 5 17
10 14 5 -3 6 -1 2 6 -4 6 -12 9 -17 5 -5 -3 -6 -10 -3 -16 5 -7 1 -9 -9 -5 -9
3 -16 3 -16 -1 3 -19 -2 -33 -10 -28 -5 4 -8 -5 -7 -18 2 -14 -1 -30 -6 -38
-7 -10 -8 -8 -4 5 3 9 1 17 -4 17 -5 0 -7 8 -4 18 5 13 4 14 -4 3 -6 -8 -7
-21 -4 -30 5 -14 4 -14 -11 -2 -15 12 -17 12 -11 -4 5 -12 4 -16 -4 -11 -6 3
-13 2 -16 -3 -4 -5 -1 -13 5 -17 7 -4 9 -3 6 2 -3 5 3 10 14 10 18 0 18 -2 5
-12 -9 -6 -27 -10 -41 -9 -14 2 -23 -2 -22 -8 1 -7 -4 -11 -11 -9 -8 1 -11 -2
-7 -8 5 -8 13 -6 25 5 14 12 20 13 26 4 5 -8 3 -10 -6 -4 -10 6 -12 4 -7 -8 4
-11 2 -14 -7 -11 -8 3 -17 1 -21 -5 -3 -6 -11 -11 -16 -11 -6 0 -8 4 -5 8 3 5
-1 9 -9 9 -19 0 -19 -7 1 -22 16 -11 16 -12 0 -18 -9 -4 -15 -3 -12 1 3 5 -1
9 -8 9 -8 0 -12 -7 -8 -15 3 -9 1 -13 -5 -9 -6 4 -16 0 -23 -8 -10 -12 -9 -16
5 -21 13 -5 14 -9 3 -15 -7 -5 -17 -9 -23 -9 -5 0 -3 5 5 10 9 6 10 10 3 10
-6 0 -15 -5 -18 -10 -4 -6 -10 -8 -14 -6 -4 3 -13 0 -21 -5 -11 -7 -7 -8 12
-5 15 3 30 0 34 -5 3 -5 10 -6 16 -3 7 4 8 2 4 -5 -5 -8 -12 -9 -20 -2 -8 7
-20 6 -38 -3 -15 -8 -29 -11 -33 -8 -3 4 -3 -2 1 -12 6 -16 8 -17 16 -2 5 9
14 16 20 16 6 0 -1 -11 -15 -24 -14 -13 -23 -27 -20 -30 6 -6 -5 -8 -44 -9
-12 0 -20 -4 -17 -9 3 -4 9 -6 14 -3 5 3 11 1 14 -4 4 -5 -4 -8 -17 -7 -17 2
-23 -3 -24 -17 -2 -15 1 -17 10 -8 6 6 15 11 21 11 5 0 1 -6 -10 -14 -12 -10
-23 -11 -31 -5 -7 7 -14 6 -18 -2 -6 -8 -10 -7 -16 2 -9 15 -11 11 -13 -33 -1
-15 -6 -31 -10 -35 -5 -4 -6 -3 -3 3 4 7 0 17 -7 23 -12 10 -13 9 -9 -7 2 -11
-1 -23 -8 -27 -8 -5 -10 -4 -5 3 4 7 2 12 -3 12 -6 0 -11 -9 -11 -20 0 -11 -6
-19 -12 -18 -8 2 -12 -5 -10 -16 3 -15 1 -16 -11 -5 -13 12 -12 16 4 30 11 9
19 20 19 24 0 5 -11 -1 -24 -14 -14 -14 -22 -31 -20 -46 1 -14 -3 -28 -8 -32
-7 -3 -8 -1 -4 5 4 7 1 12 -6 12 -9 0 -9 3 2 10 12 7 10 9 -7 7 -12 0 -19 -6
-15 -12 11 -18 10 -32 -3 -32 -8 0 -11 7 -7 16 5 14 4 14 -10 1 -11 -10 -12
-17 -5 -22 7 -4 7 -12 -3 -23 -9 -11 -16 -13 -24 -5 -5 5 -14 10 -20 10 -5 0
1 -9 14 -20 13 -11 18 -20 12 -20 -6 0 -13 4 -17 10 -7 11 -35 2 -35 -12 0 -5
5 -6 10 -3 6 3 10 1 10 -6 0 -6 -8 -9 -19 -6 -14 3 -18 1 -14 -9 3 -10 0 -12
-10 -9 -8 4 -17 -1 -21 -10 -3 -9 -2 -14 2 -11 5 3 9 -1 9 -8 0 -8 -6 -12 -14
-9 -7 3 -13 10 -13 16 0 6 -3 7 -6 4 -4 -4 -1 -13 5 -21 8 -10 9 -16 1 -21 -6
-3 -8 -10 -5 -15 3 -5 0 -12 -6 -16 -7 -4 -10 -3 -7 2 3 5 0 14 -7 21 -10 9
-14 9 -18 -1 -3 -8 -1 -18 5 -24 7 -7 5 -10 -8 -7 -11 1 -18 8 -16 15 1 6 -2
9 -7 6 -5 -3 -8 -17 -6 -31 2 -19 -2 -25 -16 -25 -11 0 -19 -5 -19 -11 0 -5 4
-8 8 -5 4 2 14 0 22 -6 13 -8 12 -9 -1 -5 -10 3 -25 -4 -38 -19 -11 -13 -28
-25 -36 -25 -8 -1 -19 -3 -25 -4 -5 -1 -12 -3 -15 -4 -3 0 -1 -9 4 -20 8 -14
6 -22 -8 -35 -17 -16 -20 -16 -35 -1 -9 9 -16 13 -16 8 0 -5 5 -14 11 -20 7
-7 6 -15 -5 -25 -8 -9 -12 -19 -8 -23 4 -5 1 -5 -6 -1 -7 4 -15 1 -18 -8 -3
-9 -11 -16 -16 -16 -6 0 -5 6 2 15 9 10 9 15 1 15 -10 0 -14 -12 -8 -26 2 -8
-44 -28 -56 -25 -5 1 -6 -3 -2 -9 5 -8 12 -7 23 2 10 8 13 8 9 1 -4 -6 -1 -14
5 -16 7 -3 -3 -4 -24 -2 -23 3 -38 -1 -41 -9 -3 -7 1 -13 9 -13 7 0 10 5 7 10
-3 6 -1 7 6 3 6 -4 9 -12 6 -17 -7 -11 -42 -12 -48 -1 -2 4 -3 2 -2 -3 3 -14
-21 -36 -30 -27 -3 4 -2 -5 4 -20 8 -22 8 -26 -4 -21 -8 3 -12 9 -9 14 3 5 1
9 -4 9 -15 0 -23 -28 -10 -36 7 -5 8 -2 3 6 -5 9 -4 11 4 6 6 -4 9 -11 6 -16
-7 -12 -35 -1 -35 13 0 6 -3 7 -6 4 -4 -4 -1 -13 5 -21 8 -10 9 -16 1 -21 -6
-3 -8 -10 -5 -15 3 -5 0 -12 -6 -16 -7 -4 -10 -3 -7 2 3 5 0 14 -7 21 -10 9
-14 9 -18 -1 -3 -8 -1 -18 5 -24 7 -7 5 -10 -8 -7 -11 1 -18 9 -16 16 2 8 0
11 -4 6 -4 -4 -9 -18 -11 -30 -2 -17 -1 -19 7 -7 7 11 10 11 10 2 0 -8 5 -10
13 -6 7 4 9 3 4 -2 -5 -5 -23 -9 -40 -10 -19 -1 -31 -6 -29 -13 1 -6 -2 -11
-8 -11 -5 0 -10 -4 -10 -10 0 -5 8 -7 18 -4 14 5 14 4 2 -4 -10 -8 -18 -8 -27
0 -8 6 -16 8 -20 4 -3 -3 -2 -6 4 -6 6 0 13 -6 16 -13 3 -8 -1 -14 -9 -14 -7
0 -11 4 -8 9 3 4 -2 5 -10 2 -19 -7 -21 -20 -4 -30 7 -4 8 -3 4 4 -5 8 -1 10
9 5 13 -4 14 -8 4 -14 -7 -4 -21 -3 -31 2 -10 5 -19 7 -19 4 -1 -3 -3 -9 -4
-15 -1 -5 -3 -17 -4 -25 0 -8 -10 -15 -21 -15 -11 0 -20 -4 -20 -10 0 -5 8 -7
18 -3 12 4 10 0 -5 -11 -12 -9 -21 -22 -19 -29 1 -6 1 -9 -1 -4 -3 4 -10 4
-16 0 -7 -4 -5 2 3 13 14 18 14 18 -3 5 -11 -9 -16 -22 -13 -34 3 -14 2 -17
-6 -9 -12 12 -38 5 -38 -10 0 -6 6 -5 15 2 10 9 15 9 15 1 0 -6 -4 -11 -10
-11 -5 0 -7 -8 -3 -17 4 -12 -1 -9 -15 7 -12 14 -22 21 -21 15 3 -23 -2 -33
-19 -40 -14 -5 -15 -4 -4 6 6 7 12 18 12 23 0 6 -7 0 -16 -12 -8 -12 -12 -27
-8 -33 4 -7 1 -10 -7 -7 -8 3 -13 10 -12 15 1 5 -5 10 -12 10 -11 0 -12 -4 -4
-14 11 -13 1 -18 -24 -14 -5 1 -6 -3 -2 -9 3 -6 12 -7 18 -4 7 4 8 3 4 -2 -12
-12 -30 -12 -40 1 -4 5 -5 -3 -1 -20 6 -27 5 -28 -7 -12 -13 16 -14 15 -14
-15 0 -23 -5 -33 -15 -33 -9 0 -14 -8 -13 -20 1 -11 0 -14 -3 -7 -8 18 -27 15
-20 -4 6 -15 4 -15 -11 -3 -10 7 -15 10 -11 5 4 -5 1 -15 -7 -22 -8 -8 -11
-22 -8 -31 6 -15 5 -16 -9 -3 -9 8 -12 17 -7 18 5 2 9 8 9 14 0 6 -6 5 -15 -2
-11 -9 -12 -16 -5 -25 8 -9 8 -15 0 -20 -6 -3 -7 -11 -4 -17 4 -6 2 -8 -3 -5
-13 8 -46 -27 -36 -38 5 -4 2 -5 -5 -1 -9 5 -9 12 -1 27 6 12 8 23 5 26 -3 3
-9 -3 -13 -15 -5 -11 -11 -21 -15 -21 -5 -1 -11 -1 -15 -1 -5 0 3 -10 17 -21
20 -16 20 -18 4 -10 -15 7 -24 7 -32 -1 -8 -8 -15 -8 -27 2 -14 11 -14 10 0
-16 16 -32 4 -57 -22 -47 -11 5 -14 3 -8 -6 6 -10 3 -11 -12 -2 -18 9 -20 7
-15 -17 4 -25 3 -25 -9 -9 -13 16 -14 15 -14 -15 0 -27 -4 -32 -19 -30 -15 3
-18 -1 -13 -20 6 -22 5 -22 -8 -4 -15 20 -15 20 -15 0 -1 -19 -1 -19 -15 0 -8
11 -15 15 -15 8 0 -6 10 -21 23 -33 l22 -21 -23 11 c-18 10 -23 9 -28 -3 -3
-8 -3 -19 0 -24 3 -5 -2 -9 -12 -9 -32 0 -42 -3 -42 -13 0 -5 7 -7 15 -4 8 4
15 1 15 -5 0 -6 -3 -10 -7 -10 -20 3 -34 -2 -29 -10 3 -5 -1 -12 -9 -15 -13
-4 -13 -2 -5 14 13 24 13 30 -2 30 -6 0 -8 -3 -5 -6 3 -4 1 -16 -4 -27 -9 -16
-13 -17 -21 -6 -8 11 -9 11 -5 -3 3 -9 3 -19 -1 -22 -3 -4 -7 -13 -8 -22 -2
-11 4 -13 19 -9 12 4 18 3 12 -2 -5 -4 -16 -18 -22 -30 -11 -20 -11 -21 5 -16
9 4 21 11 25 17 6 7 7 5 4 -6 -8 -23 3 -30 22 -15 14 11 15 10 1 -8 -8 -11
-19 -23 -23 -26 -5 -3 -1 -9 8 -12 9 -4 14 -3 11 2 -3 5 1 14 9 21 12 10 13 7
5 -19 -5 -17 -5 -29 0 -26 11 7 32 -20 22 -29 -4 -4 0 -6 8 -4 8 1 14 -2 13
-9 -2 -8 6 -9 28 -3 26 8 29 7 19 -5 -7 -8 -16 -12 -21 -9 -5 3 -6 -2 -3 -10
5 -14 8 -14 21 -1 18 19 20 19 20 0 0 -8 -3 -12 -7 -10 -4 2 -7 -2 -7 -10 0
-8 4 -12 8 -9 4 2 12 -3 17 -12 6 -11 11 -13 16 -5 11 18 22 13 23 -11 2 -18
0 -19 -7 -8 -7 12 -9 10 -8 -6 2 -21 20 -26 35 -9 4 4 2 5 -4 1 -9 -5 -11 -2
-7 8 5 12 9 13 19 3 7 -7 9 -13 4 -15 -13 -5 -11 -21 5 -38 9 -9 17 -10 21 -4
3 5 12 10 18 10 7 0 6 -4 -3 -10 -13 -8 -12 -10 3 -10 9 0 17 -5 17 -11 0 -5
-6 -7 -12 -3 -8 5 -6 -2 3 -16 10 -15 25 -24 38 -24 16 1 19 -2 11 -11 -8 -10
-8 -15 1 -21 8 -4 9 -3 5 4 -13 22 21 12 38 -10 9 -13 14 -17 10 -9 -4 9 -3
12 4 7 5 -3 13 0 16 6 3 7 3 3 1 -9 -3 -12 -1 -24 4 -27 6 -4 8 -14 5 -24 -5
-14 -4 -14 4 -2 7 9 8 18 1 26 -7 8 -6 14 1 19 5 3 11 4 11 1 1 -3 3 -10 4
-16 1 -5 3 -17 4 -25 0 -8 5 -15 10 -15 5 0 7 10 5 23 -2 13 -1 16 3 7 3 -8
13 -20 22 -26 13 -10 13 -14 1 -28 -11 -15 -11 -17 0 -14 8 2 14 -2 15 -9 0
-21 22 -36 30 -22 6 8 4 10 -5 4 -8 -5 -11 -4 -6 3 3 6 2 13 -4 17 -5 3 -10
12 -10 18 0 7 9 1 19 -13 11 -13 17 -28 15 -32 -5 -8 5 -11 38 -11 9 0 14 -5
12 -12 -3 -7 2 -15 11 -19 9 -3 13 -11 9 -18 -5 -8 -2 -9 11 -4 18 7 18 6 0
-14 -18 -20 -18 -21 0 -14 13 5 16 4 11 -4 -4 -7 -2 -12 3 -12 6 0 11 8 12 18
0 11 2 12 6 4 3 -7 -1 -20 -9 -29 -7 -10 -8 -14 -1 -10 6 4 20 -4 31 -18 23
-29 34 -32 26 -7 -5 13 -4 14 4 3 6 -8 8 -20 6 -26 -8 -21 45 -38 59 -20 5 6
7 3 3 -7 -3 -10 0 -18 6 -18 6 0 8 -3 5 -6 -4 -4 -13 -2 -20 4 -10 9 -14 8
-14 -3 0 -7 5 -13 11 -12 6 1 10 -4 8 -12 -3 -12 0 -12 13 -1 13 11 14 10 9
-5 -5 -13 -4 -16 4 -11 7 4 12 1 12 -8 0 -9 4 -16 10 -16 5 0 7 6 4 14 -3 8
-1 17 5 21 7 3 8 0 5 -9 -4 -10 -1 -16 7 -16 8 0 5 -6 -7 -15 -15 -11 -16 -14
-3 -15 8 0 21 6 28 13 10 8 12 8 7 0 -3 -6 -2 -14 4 -18 6 -4 8 -11 4 -16 -3
-6 5 -8 20 -5 17 3 24 1 20 -6 -4 -6 0 -14 7 -19 8 -4 14 -14 14 -21 1 -7 6
-12 12 -11 7 2 10 -6 8 -17 -2 -11 0 -20 6 -20 5 0 9 8 10 18 0 12 2 13 6 3 3
-8 -3 -21 -13 -29 -16 -12 -16 -14 -2 -9 11 4 24 -3 37 -18 22 -29 33 -32 25
-7 -5 13 -4 14 4 3 6 -8 8 -19 6 -26 -3 -6 7 -17 22 -23 16 -8 24 -18 20 -27
-3 -8 0 -14 6 -12 7 1 12 -5 13 -13 1 -8 7 -13 15 -12 42 10 50 10 44 0 -4 -5
0 -14 7 -19 10 -6 11 -9 2 -9 -7 0 -13 -5 -13 -11 0 -5 5 -7 10 -4 9 6 15 -8
11 -29 -1 -5 5 -3 15 4 14 12 18 12 29 -4 8 -10 18 -15 23 -12 12 7 10 -13 -1
-31 -5 -8 -3 -13 7 -13 8 0 17 6 19 13 3 6 4 -2 3 -20 -3 -25 0 -30 13 -26 9
4 13 3 9 -2 -11 -12 11 -35 28 -28 8 3 14 0 14 -7 0 -8 8 -10 21 -7 16 4 18 3
9 -8 -8 -10 -8 -15 1 -21 8 -4 9 -3 5 4 -9 16 7 15 22 0 9 -9 11 -7 7 10 -2
12 1 25 7 28 6 4 8 3 5 -3 -7 -11 41 -28 51 -18 3 3 -2 5 -10 5 -9 0 -18 6
-21 14 -4 10 1 13 18 11 28 -3 54 22 50 47 -3 14 1 15 23 7 24 -8 25 -8 9 5
-16 12 -16 17 -6 34 12 19 14 19 27 4 7 -9 11 -11 7 -5 -3 7 -1 13 4 13 6 0
11 5 11 11 0 5 -5 7 -10 4 -5 -3 -10 -1 -10 4 0 14 13 14 28 -1 7 -7 12 -8 12
-2 0 5 -4 14 -10 20 -6 6 -3 10 10 11 13 1 18 -3 14 -10 -3 -7 3 -3 13 9 10
11 25 19 33 17 13 -4 13 -3 0 6 -8 5 -18 7 -22 5 -4 -3 -8 0 -8 5 0 9 26 15
51 13 3 -1 6 5 6 13 0 15 -17 15 -30 0 -5 -6 -7 -4 -5 4 4 13 17 18 59 23 10
1 14 9 11 25 -2 13 1 23 7 23 6 0 10 -3 10 -7 -1 -5 -1 -15 0 -23 1 -13 3 -13
10 -1 5 8 6 21 3 30 -5 14 -4 14 14 1 18 -14 18 -14 5 3 -8 10 -20 16 -28 13
-8 -3 -11 -2 -8 3 7 12 45 10 45 -2 0 -4 5 -5 11 -1 8 5 7 10 -4 16 -9 5 -14
15 -10 24 5 12 7 12 19 -3 12 -16 13 -15 8 10 -4 27 9 37 22 15 4 -7 3 -8 -4
-4 -8 5 -10 2 -6 -8 3 -9 11 -16 17 -16 6 0 7 3 4 6 -3 4 -2 16 4 27 8 15 8
18 -1 12 -9 -6 -9 -3 -1 13 6 12 17 24 24 28 8 5 7 2 -2 -9 -10 -13 -10 -17
-1 -17 7 0 10 -7 6 -16 -3 -9 -2 -12 4 -9 6 4 10 12 9 18 -3 29 2 57 11 57 6
0 9 -3 9 -7 -1 -5 -1 -15 0 -23 1 -13 3 -13 10 -1 5 8 7 20 4 28 -3 9 0 11 10
7 16 -6 30 10 34 40 3 16 1 17 -14 5 -14 -11 -13 -9 2 13 22 30 30 34 41 16 4
-7 3 -8 -4 -4 -8 5 -10 2 -6 -8 6 -16 25 -23 23 -8 -4 22 3 31 19 26 14 -5 14
-4 2 4 -8 6 -18 8 -22 6 -4 -3 -5 2 -2 10 3 8 12 12 19 10 7 -3 16 0 20 5 3 6
10 9 14 7 4 -3 8 5 8 17 2 22 2 22 -16 -2 -14 -18 -20 -21 -26 -11 -5 8 -4 11
2 7 11 -7 28 20 24 38 -1 5 6 2 17 -8 18 -16 20 -16 34 0 9 10 14 29 12 43 -2
14 -1 20 4 13 8 -13 52 -14 52 -2 0 4 -10 11 -21 14 -17 6 -18 9 -8 16 7 4 18
4 25 -2 7 -6 17 -2 29 11 10 11 21 18 24 15 4 -2 8 6 8 18 1 12 -3 25 -10 29
-8 5 -6 8 6 8 10 0 15 5 12 10 -3 6 -1 10 5 10 6 0 8 -11 6 -25 -3 -15 -1 -23
5 -20 5 4 6 11 3 17 -5 8 -1 9 10 5 9 -4 15 -3 11 2 -3 6 3 14 12 20 10 5 17
12 16 15 -6 13 -2 27 6 22 10 -6 57 32 54 44 -1 4 7 16 19 26 12 11 18 13 14
7 -4 -7 -2 -13 4 -13 6 0 8 -5 4 -12 -4 -7 -3 -8 5 -4 6 4 8 12 5 18 -5 7 -1
9 9 5 9 -3 19 -1 23 5 4 6 3 8 -2 5 -6 -3 -16 -2 -24 4 -10 5 -11 9 -3 9 7 0
10 7 7 18 -5 16 -5 16 6 -1 6 -9 16 -15 21 -11 6 3 5 12 -3 22 -10 13 -7 13
17 -2 18 -12 25 -14 19 -5 -15 18 0 59 21 59 10 0 13 5 9 13 -5 7 0 6 11 -3
17 -14 18 -14 6 8 -7 13 -10 26 -7 30 3 3 6 0 6 -6 0 -7 7 -12 15 -12 8 0 15
5 15 11 0 5 -4 7 -10 4 -6 -3 -7 1 -4 10 6 14 8 14 21 -2 8 -10 12 -12 8 -5
-3 6 -1 12 6 12 7 0 4 7 -7 15 -16 13 -17 14 -1 9 10 -4 17 -3 15 2 -2 5 1 9
7 9 5 0 9 -7 7 -15 -2 -11 1 -10 8 3 6 9 15 15 20 12 5 -3 12 0 16 6 4 7 3 9
-2 6 -6 -3 -16 -2 -24 4 -13 7 -12 9 3 10 33 3 37 4 37 12 0 4 0 10 0 13 0 4
-7 1 -15 -6 -9 -7 -15 -8 -15 -2 0 14 24 22 57 17 15 -2 22 -2 15 1 -6 3 -10
9 -7 13 2 5 -7 7 -20 5 -14 -1 -23 2 -20 6 3 5 12 7 20 3 9 -3 15 1 15 11 0 9
5 16 11 16 5 0 8 -4 4 -9 -3 -5 0 -13 6 -17 7 -4 10 -3 7 2 -9 15 10 54 27 54
10 0 13 5 9 13 -5 7 0 6 11 -3 17 -14 18 -14 6 8 -7 13 -10 26 -7 30 3 3 6 0
6 -6 0 -7 7 -12 15 -12 8 0 15 5 15 11 0 5 -4 7 -10 4 -6 -3 -7 1 -4 10 6 14
8 14 21 -2 8 -10 11 -12 7 -4 -5 11 -3 13 9 8 9 -3 19 -1 23 5 4 7 3 8 -4 4
-7 -4 -12 -2 -12 4 0 6 -4 9 -9 5 -5 -3 -13 -1 -16 5 -4 6 -1 9 7 8 7 -2 12 3
10 10 -1 8 2 11 8 7 6 -3 8 -10 5 -15 -7 -11 22 -7 32 5 4 4 3 5 -3 2 -7 -4
-14 -1 -17 7 -4 10 0 12 14 9 11 -3 19 0 19 6 0 7 -4 10 -8 7 -5 -3 -9 1 -9 9
0 10 4 12 12 5 15 -12 33 1 30 22 -2 11 2 15 11 11 8 -3 11 -10 7 -16 -3 -6
-1 -7 6 -3 9 6 9 11 0 22 -12 14 -2 22 35 28 8 1 19 6 23 11 4 4 3 5 -3 2 -7
-4 -14 -1 -17 6 -4 10 5 12 30 10 20 -1 33 0 29 4 -3 3 -14 7 -24 8 -9 0 -18
5 -19 10 -1 6 5 9 14 7 8 -2 12 1 8 7 -3 7 0 8 9 5 9 -3 13 -11 9 -17 -3 -5
-1 -7 5 -4 5 4 8 16 5 27 -3 11 -10 17 -16 13 -6 -3 -7 -1 -3 6 5 8 12 9 20 2
13 -11 41 -9 53 4 4 4 2 5 -4 1 -8 -4 -13 -2 -13 6 0 9 -3 9 -10 -2 -6 -9 -10
-10 -10 -3 0 6 5 15 10 18 6 4 7 11 4 17 -4 7 -2 8 5 4 6 -4 9 -11 6 -16 -7
-11 22 -7 32 5 4 4 3 5 -3 2 -12 -7 -29 21 -19 31 3 3 5 0 5 -6 0 -7 7 -12 15
-12 8 0 15 5 15 11 0 5 -4 8 -8 5 -5 -3 -9 1 -9 9 0 8 5 11 11 7 18 -11 36
-11 43 0 4 7 1 8 -7 3 -8 -5 -11 -3 -8 6 3 8 11 13 17 11 6 -1 14 5 17 13 3 8
10 12 15 9 5 -3 9 -2 8 3 -1 4 -1 16 0 26 1 14 5 16 20 7 14 -7 22 -7 27 2 4
6 3 9 -2 6 -5 -3 -14 0 -21 7 -9 10 -9 14 1 18 8 3 18 1 24 -5 6 -6 12 -6 17
3 5 7 4 10 -2 6 -11 -7 -28 22 -18 31 3 3 5 0 5 -6 0 -7 6 -12 14 -12 10 0 12
7 9 23 -5 22 -5 22 11 2 10 -11 14 -14 10 -6 -5 11 -3 13 9 8 9 -3 19 -1 23 5
4 6 3 8 -3 5 -6 -4 -18 -1 -28 6 -15 12 -14 13 14 11 17 -1 34 3 38 9 3 5 1 7
-4 4 -6 -4 -13 -1 -16 7 -4 10 0 12 14 9 11 -3 19 0 19 6 0 7 -4 10 -8 7 -5
-3 -9 2 -9 10 0 9 4 11 10 5 17 -17 36 -1 31 25 -4 22 -2 23 10 12 7 -7 11
-17 8 -23 -3 -6 -1 -6 4 -2 5 5 10 13 10 18 3 22 5 23 15 9 9 -13 10 -13 8 0
-3 31 1 55 9 45 9 -13 27 -13 39 -1 4 5 4 7 -2 4 -5 -3 -16 0 -23 8 -8 9 -9
14 -2 14 6 0 8 5 4 12 -4 7 -3 8 5 4 6 -4 9 -11 6 -16 -7 -11 22 -7 32 5 4 4
3 5 -3 2 -7 -4 -14 -1 -17 6 -3 9 4 12 24 11 16 -1 26 2 23 7 -11 18 7 31 24
17 12 -10 14 -10 8 0 -4 7 -1 12 8 12 9 0 16 -9 16 -21 0 -11 4 -18 10 -14 5
3 6 13 3 23 -6 16 -6 16 10 0 20 -19 22 -38 5 -38 -6 0 -8 -3 -5 -6 4 -4 12
-3 19 3 7 5 24 10 38 11 14 1 20 -2 15 -6 -6 -4 -15 -17 -22 -28 -10 -18 -9
-21 5 -21 33 0 42 -3 42 -14 0 -5 -6 -7 -12 -3 -8 5 -8 1 2 -12 22 -29 24 -30
17 -12 -3 9 1 22 9 29 12 10 13 9 8 -6 -6 -14 -4 -16 7 -10 11 7 11 5 -1 -10
-14 -17 -13 -17 10 -10 21 7 23 6 13 -7 -10 -11 -10 -17 -1 -26 9 -9 9 -12 -2
-12 -7 0 -11 -2 -8 -5 3 -3 13 -3 22 1 15 6 15 7 1 18 -15 10 -14 12 4 12 11
0 17 -4 15 -8 -3 -4 0 -8 7 -8 8 0 7 -5 -2 -17 -10 -11 -10 -14 -1 -9 6 4 12
2 12 -3 0 -6 5 -11 11 -11 5 0 7 6 3 13 -5 8 -2 8 9 -2 24 -19 21 -34 -4 -26
-19 6 -20 5 -8 -8 11 -11 19 -12 34 -4 18 9 19 9 5 -8 -14 -17 -14 -18 10 -5
23 12 24 12 11 -3 -11 -14 -11 -17 0 -18 8 -1 18 -1 23 0 5 1 3 -6 -5 -15 -12
-15 -12 -16 9 -10 16 5 22 4 20 -6 -2 -7 3 -12 10 -10 8 1 11 -2 7 -8 -3 -5
-1 -10 6 -10 8 0 8 -4 -1 -15 -11 -13 -10 -14 5 -9 11 4 16 3 13 -2 -4 -5 0
-20 8 -34 7 -14 13 -19 14 -12 0 6 7 12 16 12 9 0 12 5 8 13 -4 7 -3 9 2 4 9
-9 10 -13 13 -42 0 -8 6 -14 12 -13 6 2 14 -4 16 -12 4 -13 3 -13 -6 0 -6 8
-11 11 -11 6 0 -5 -7 -3 -15 4 -8 7 -12 17 -8 24 4 6 -1 5 -10 -3 -20 -16 -22
-22 -4 -19 6 2 11 -2 10 -8 -1 -6 3 -11 10 -11 7 0 17 -2 22 -3 21 -5 36 1 29
12 -4 7 -3 8 5 4 9 -6 9 -11 0 -22 -12 -14 -10 -15 31 -18 8 -1 15 -6 15 -11
0 -6 16 -25 35 -44 34 -33 32 -34 -20 -13 -13 5 -13 4 0 -10 8 -9 18 -14 22
-11 5 2 8 -1 8 -7 0 -7 7 -7 23 1 22 12 22 12 4 -9 -14 -15 -15 -22 -6 -28 7
-4 10 -3 5 4 -4 6 1 10 13 9 16 -1 18 -4 8 -16 -10 -12 -8 -13 13 -6 22 7 23
6 11 -8 -7 -9 -18 -14 -25 -10 -6 3 -7 2 -3 -3 5 -5 14 -9 20 -9 7 -1 11 -7 9
-15 -3 -12 -1 -13 9 -3 15 15 33 17 24 3 -3 -5 -1 -10 5 -10 6 0 9 -3 6 -8 -2
-4 2 -18 9 -32 13 -24 14 -24 12 -2 -1 12 -5 22 -10 22 -4 0 -5 5 -1 11 4 8 9
7 15 -2 4 -7 5 -17 3 -21 -3 -4 2 -9 10 -9 9 -1 22 -2 29 -3 6 0 12 -7 12 -14
0 -7 7 -17 15 -22 8 -5 10 -10 4 -10 -6 0 -19 9 -29 20 -10 11 -23 20 -29 19
-6 0 -6 -3 2 -6 6 -2 9 -10 6 -15 -4 -7 -2 -8 4 -4 7 4 12 1 12 -7 0 -10 9
-14 30 -13 23 2 27 -1 18 -11 -5 -7 -15 -10 -21 -6 -5 3 -7 2 -4 -4 4 -6 18
-9 31 -8 14 2 25 0 25 -3 -4 -28 1 -34 18 -21 15 13 15 12 3 -11 -13 -24 -12
-24 5 -10 17 14 17 13 8 -5 -8 -15 -7 -23 2 -32 10 -10 14 -9 19 3 3 9 1 12
-4 9 -6 -3 -10 -1 -10 5 0 18 22 6 38 -21 13 -23 13 -23 -2 -5 -9 11 -16 15
-16 9 0 -7 5 -15 10 -18 6 -4 8 -11 5 -16 -4 -5 1 -12 9 -15 9 -3 13 -11 9
-17 -4 -6 -1 -7 7 -2 10 6 9 11 -5 22 -16 11 -16 13 -3 13 9 0 20 -9 23 -20 4
-11 11 -17 17 -14 8 5 9 1 5 -10 -5 -14 -3 -17 8 -13 18 7 30 -9 14 -19 -8 -5
-9 -3 -4 7 5 8 4 10 0 6 -14 -13 -14 -34 1 -34 7 0 11 4 8 9 -3 4 6 7 19 6 21
-2 24 -6 21 -32 -3 -28 -3 -28 12 -10 9 10 12 13 8 5 -5 -11 -3 -13 10 -8 14
6 16 3 10 -15 -6 -21 -5 -22 11 -8 11 9 16 10 11 3 -4 -8 -1 -13 9 -13 9 0 13
5 10 10 -3 6 -1 10 4 10 15 0 14 -13 -1 -29 -10 -11 -10 -13 0 -7 6 4 12 2 12
-4 0 -6 5 -8 10 -5 9 6 15 -8 11 -29 -1 -5 5 -3 14 4 13 11 14 10 8 -5 -5 -15
-3 -17 11 -12 14 6 16 3 11 -13 -4 -11 -2 -20 4 -20 6 0 11 5 11 12 0 6 3 8 6
5 4 -4 1 -14 -7 -23 -13 -16 -12 -16 9 -5 26 14 31 -3 5 -18 -10 -6 -13 -10
-8 -11 6 0 17 5 25 10 17 11 63 -26 53 -43 -4 -6 0 -8 11 -4 9 4 15 3 12 -1
-3 -5 6 -21 19 -36 13 -15 26 -33 28 -39 3 -9 10 -8 27 1 12 8 19 9 15 3 -3
-6 -2 -11 4 -11 5 0 18 -3 28 -7 16 -6 17 -5 3 12 -14 17 -14 17 6 7 11 -6 26
-7 33 -3 10 6 9 10 -4 14 -10 5 -14 3 -9 -5 4 -7 3 -8 -5 -4 -18 12 -2 27 22
21 22 -6 22 -6 2 11 -20 16 -19 16 5 9 14 -4 22 -4 18 0 -12 13 13 37 26 26 8
-7 12 -4 13 10 1 12 -2 17 -10 13 -7 -4 -8 -3 -4 2 5 5 14 9 20 9 7 0 12 5 12
12 0 21 22 37 30 22 5 -7 4 -10 -3 -5 -6 3 -13 2 -16 -3 -3 -5 0 -11 7 -14 8
-3 19 4 26 14 6 11 17 17 23 13 6 -4 8 -3 4 4 -3 6 -2 14 4 17 8 5 7 11 -1 21
-10 12 -9 13 6 7 14 -5 17 -3 12 10 -4 11 -2 14 8 10 8 -3 13 -8 10 -12 -2 -4
3 -8 11 -8 10 0 8 7 -8 25 -22 24 -23 24 -2 14 27 -14 48 5 38 34 -4 11 -4 16
1 12 4 -4 14 -3 22 3 9 9 13 8 13 0 0 -6 -4 -11 -10 -11 -5 0 -10 -6 -10 -12
0 -7 15 5 34 27 30 36 39 74 13 58 -6 -4 -7 -1 -2 6 5 9 13 7 29 -8 17 -16 23
-18 23 -7 0 8 -4 13 -8 11 -4 -3 -9 2 -12 10 -4 10 -1 12 10 8 12 -5 15 -2 11
9 -5 12 0 15 22 13 21 -2 27 1 23 12 -4 11 -8 11 -13 3 -5 -8 -9 -8 -13 3 -4
10 2 14 16 14 48 1 48 2 36 26 -11 20 -11 21 4 9 14 -12 16 -11 12 7 -2 11 1
24 7 27 6 4 8 2 4 -4 -4 -6 1 -10 13 -9 14 1 17 5 10 13 -11 13 13 38 26 26 4
-4 4 4 0 18 -7 24 -7 25 9 5 17 -20 17 -20 10 4 -4 18 -3 22 7 16 9 -6 11 -3
6 9 -4 10 -3 15 3 11 5 -3 14 3 20 14 6 12 18 18 29 16 11 -2 27 5 37 16 14
16 15 21 3 35 -13 16 -12 16 7 6 25 -13 47 -2 34 18 -7 10 -10 11 -10 3 0 -7
-5 -13 -12 -13 -9 0 -9 3 0 12 14 14 45 20 37 8 -3 -5 -1 -11 4 -14 11 -7 9
13 -2 31 -6 9 -3 11 10 6 16 -6 16 -5 4 10 -18 22 -7 22 15 0 17 -17 17 -16
10 12 -4 17 -4 27 0 23 4 -4 13 -3 21 3 7 6 13 8 13 3 0 -4 11 3 24 15 23 22
26 58 3 44 -6 -4 -7 -1 -2 6 5 9 13 7 29 -8 17 -16 23 -18 23 -7 0 8 -4 13 -8
11 -4 -3 -9 2 -12 10 -4 10 -1 12 10 8 13 -5 15 -2 10 12 -6 15 -5 16 7 6 10
-8 16 -9 21 -1 3 6 11 7 17 4 7 -4 8 -2 4 4 -4 6 2 17 13 23 10 7 17 18 14 26
-3 7 -9 10 -14 7 -5 -3 -6 -10 -3 -16 5 -7 2 -8 -5 -3 -9 5 -10 10 -2 18 13
13 43 19 36 7 -3 -5 -1 -11 4 -14 10 -7 9 13 -2 31 -4 6 -2 15 4 19 8 4 9 3 5
-4 -4 -7 3 -11 23 -9 16 1 27 6 24 10 -3 5 -11 6 -19 3 -16 -6 -19 10 -4 19 6
4 8 11 5 16 -4 5 -1 9 5 9 7 0 10 -7 6 -15 -3 -8 -1 -15 4 -15 6 0 10 7 10 16
0 11 5 14 16 10 13 -5 14 -4 6 7 -14 17 -3 31 13 17 9 -8 12 -4 10 15 -2 14 2
23 8 22 7 -1 11 3 10 10 -2 9 4 10 23 3 25 -10 26 -9 21 17 -5 24 -4 26 8 10
12 -16 13 -16 18 3 3 11 11 20 19 20 11 0 11 -2 0 -9 -11 -7 -11 -9 1 -14 11
-4 15 1 13 16 -1 13 11 35 28 52 28 28 28 17 0 -15 -9 -10 -10 -20 -4 -30 7
-11 10 -11 11 -2 3 23 4 27 20 49 9 13 19 20 23 16 4 -4 4 0 1 9 -4 10 -13 15
-23 11 -14 -4 -15 -3 -2 6 11 7 20 5 34 -7 18 -16 18 -16 7 5 -14 28 -14 30 5
37 9 4 23 1 30 -5 12 -10 13 -8 8 6 -5 12 -4 16 4 11 6 -3 16 2 22 13 9 17 8
19 -5 15 -8 -3 -13 -9 -11 -13 3 -4 -4 -7 -15 -7 -19 0 -19 1 -3 13 10 7 22
13 27 13 4 0 5 5 1 11 -4 7 1 7 16 -1 18 -10 21 -9 15 1 -6 9 -3 10 10 5 15
-5 16 -4 6 8 -7 8 -20 12 -29 9 -9 -3 -14 -3 -11 1 10 10 61 18 55 8 -3 -5 1
-9 9 -9 20 0 19 7 -2 24 -10 8 -12 12 -5 8 6 -3 12 -1 12 6 0 8 4 8 15 -1 13
-11 14 -10 9 5 -5 12 -4 16 4 11 6 -3 14 -1 17 5 4 5 14 8 24 5 12 -5 11 -2
-3 9 -11 8 -25 15 -30 15 -6 1 2 8 18 16 24 13 30 14 38 2 6 -9 7 -5 4 13 -4
22 -1 26 19 23 17 -1 22 2 18 13 -5 12 -7 12 -14 1 -7 -10 -9 -10 -9 0 0 7 7
15 15 18 8 4 13 10 10 14 -3 5 4 11 15 15 11 4 17 11 14 17 -4 5 4 4 17 -2
l24 -13 -20 24 c-11 13 -13 19 -5 13 22 -17 49 -14 42 4 -3 10 -1 13 6 8 6 -3
13 -2 16 3 4 5 1 13 -5 17 -7 4 -9 3 -6 -3 4 -6 -1 -10 -11 -9 -9 0 -16 -5
-14 -12 1 -8 -2 -11 -9 -6 -19 11 25 42 56 39 14 -2 23 1 19 6 -3 5 -9 7 -14
4 -5 -3 -11 -1 -14 4 -3 5 7 8 24 7 22 -2 27 1 19 10 -6 7 -18 10 -27 7 -9 -3
-14 -3 -11 1 10 10 61 18 55 8 -3 -5 1 -9 9 -9 20 0 19 6 -6 26 -21 17 -21 17
-1 17 11 0 19 -3 17 -6 -2 -4 2 -7 9 -7 8 0 12 7 8 15 -3 9 -1 13 5 9 6 -4 16
0 22 7 10 11 9 16 -4 23 -13 8 -12 11 11 22 22 10 29 9 36 -1 5 -8 7 -4 4 13
-4 22 -1 26 19 23 17 -1 22 2 18 13 -5 12 -7 12 -14 1 -7 -10 -9 -10 -9 0 0 7
7 15 15 18 8 4 12 10 9 15 -5 9 3 11 43 12 12 0 20 4 17 9 -3 4 -9 6 -14 3 -5
-3 -12 0 -16 6 -5 8 -3 9 6 4 10 -6 12 -4 6 10 -5 15 -4 16 8 6 16 -13 24 -5
31 30 3 12 7 24 11 28 4 3 4 -2 1 -11 -3 -9 1 -22 9 -29 12 -10 13 -9 8 6 -5
13 -4 16 5 10 10 -6 11 -3 1 15 -7 13 -8 20 -2 16 6 -3 13 3 17 14 4 11 11 17
17 14 7 -5 9 -1 5 9 -6 16 -4 15 21 0 l27 -18 -18 27 c-15 25 -16 27 0 21 12
-5 14 -3 8 7 -5 9 -4 11 4 6 6 -4 9 -11 6 -16 -3 -5 -1 -11 3 -14 5 -3 9 5 9
17 1 40 3 48 12 43 5 -3 11 1 15 9 3 8 11 15 18 15 10 0 10 -2 0 -9 -11 -7
-11 -9 1 -14 11 -4 14 1 12 18 -1 14 1 22 6 19 9 -5 45 56 40 71 -1 5 7 1 19
-10 21 -19 21 -19 14 1 -7 17 -6 17 9 5 16 -12 17 -12 11 5 -4 10 -4 16 1 12
12 -11 35 11 28 28 -3 7 -10 11 -16 7 -6 -3 -7 -1 -3 6 6 9 11 9 21 1 10 -8
15 -8 20 1 6 8 10 7 16 -2 5 -8 9 -9 9 -3 0 6 11 23 25 38 14 15 25 24 25 20
0 -3 6 -1 13 5 8 6 16 8 19 5 3 -2 8 2 11 10 4 9 1 18 -5 22 -6 4 -8 3 -5 -2
3 -6 -3 -15 -14 -22 -23 -15 -24 -9 -2 17 12 14 21 17 33 11 13 -7 16 -4 14
20 -1 22 2 27 13 23 12 -5 12 -7 1 -14 -9 -6 -6 -8 9 -6 20 1 21 3 7 18 -10
11 -12 19 -5 24 6 3 14 -1 17 -9 5 -12 9 -13 19 -3 9 9 10 14 1 19 -8 5 -6 12
5 24 13 12 18 13 24 3 5 -7 4 -10 -3 -5 -6 3 -13 2 -16 -3 -4 -5 2 -8 11 -6
10 2 22 4 27 4 5 1 -1 10 -14 21 -13 11 -19 20 -14 20 6 0 14 -4 20 -10 5 -5
15 -6 24 0 13 8 13 11 1 22 -10 9 -12 10 -7 1 5 -9 2 -11 -9 -6 -13 4 -14 8
-4 14 7 4 22 3 33 -3 19 -10 20 -10 6 7 -14 16 -13 17 6 11 23 -7 42 18 24 29
-6 4 -10 12 -10 18 0 8 3 8 8 2 4 -5 14 -15 23 -22 13 -10 15 -8 15 12 0 13
-4 21 -8 19 -5 -3 -5 -10 -2 -16 5 -7 2 -8 -5 -3 -10 6 -9 11 3 24 14 13 18
13 25 3 7 -11 9 -11 14 1 3 8 1 19 -5 25 -7 7 -5 10 8 7 11 -1 17 -9 16 -16
-2 -8 0 -11 4 -6 4 4 9 18 11 30 2 18 1 19 -8 7 -9 -13 -10 -13 -6 0 2 8 13
15 25 14 14 0 18 4 14 14 -3 9 -1 13 4 9 6 -3 16 -1 24 5 12 8 12 9 -2 4 -10
-3 -20 -1 -23 4 -4 6 1 10 10 10 10 0 13 5 9 13 -4 6 3 3 17 -8 13 -11 21 -16
17 -11 -10 13 11 48 24 40 7 -5 8 -2 3 6 -6 10 -12 8 -26 -8 -14 -18 -18 -19
-23 -6 -3 8 -2 13 3 10 5 -3 14 1 21 9 10 12 10 15 0 15 -8 0 -10 3 -7 6 4 4
14 1 22 -6 13 -11 18 -10 31 6 9 10 13 12 9 4 -4 -10 -2 -9 8 3 8 9 17 17 20
17 4 0 3 -8 0 -17 -6 -15 -4 -16 8 -6 12 10 17 8 27 -8 7 -10 19 -19 27 -19
17 0 19 -11 5 -28 -5 -7 -2 -6 7 2 14 13 14 18 3 31 -7 8 -10 18 -6 22 3 3 6
1 6 -6 0 -7 4 -10 9 -7 5 3 8 -8 7 -24 -2 -35 9 -47 41 -44 12 0 20 -3 17 -7
-3 -5 2 -12 10 -15 9 -3 16 -13 16 -21 0 -9 6 -13 15 -9 8 3 14 0 12 -7 -1 -7
7 -11 18 -9 18 2 18 1 3 -8 -10 -6 -15 -17 -11 -27 5 -14 7 -14 17 -1 10 13
14 12 30 -10 11 -14 14 -22 8 -18 -7 4 -12 2 -12 -3 0 -6 6 -11 13 -11 8 0 7
-4 -3 -11 -12 -8 -10 -9 7 -4 27 7 39 -11 21 -32 -7 -9 -8 -14 -2 -10 13 8 56
-21 49 -33 -3 -5 9 -7 27 -5 23 3 29 2 18 -5 -8 -5 -11 -12 -7 -16 3 -4 14 -1
24 7 11 9 14 10 9 1 -4 -7 -1 -15 9 -18 12 -5 13 -9 5 -14 -7 -4 -9 -13 -5
-20 6 -10 12 -8 22 6 14 19 14 19 11 -1 -2 -12 2 -19 9 -18 7 2 10 -4 7 -12
-4 -9 0 -15 10 -15 9 0 16 -4 16 -10 0 -5 3 -9 8 -9 18 3 22 -2 13 -20 -13
-23 17 -53 57 -59 26 -3 42 -18 41 -37 0 -5 -3 -4 -6 3 -2 6 -10 9 -15 6 -7
-4 -8 -2 -4 4 4 7 3 12 -2 12 -6 0 -13 -8 -16 -17 -4 -10 -4 -14 0 -10 4 4 18
0 31 -9 20 -13 27 -13 41 -2 13 11 15 11 9 -4 -4 -12 -2 -15 8 -11 8 3 12 9 9
14 -3 5 -1 9 5 9 5 0 12 -6 14 -12 3 -8 6 -6 6 5 1 9 7 17 14 17 8 0 8 3 1 8
-12 8 -14 53 -2 46 4 -3 15 -1 24 4 15 8 15 10 0 15 -9 4 -13 13 -10 22 3 8
10 12 15 9 5 -3 7 1 4 8 -12 32 -11 75 1 75 10 0 10 -6 3 -21 -10 -20 -10 -20
5 -2 11 13 13 23 6 32 -8 8 -6 14 6 18 13 5 14 9 4 21 -10 12 -10 18 1 32 12
14 12 16 0 8 -11 -6 -13 -4 -8 9 4 10 7 20 7 22 0 3 6 2 13 -2 6 -4 4 2 -6 13
-14 16 -14 20 -2 20 8 0 11 -5 8 -11 -3 -6 0 -5 8 2 12 11 12 14 -1 23 -13 8
-12 11 4 24 14 11 16 15 5 15 -12 0 -12 2 1 10 9 6 11 10 3 10 -18 0 -5 26 20
39 20 10 20 11 2 6 -31 -7 -30 31 0 51 20 13 23 20 15 34 -9 16 -7 18 12 15
21 -4 22 -3 5 9 -11 8 -14 15 -7 18 6 2 12 11 13 20 2 9 9 24 17 34 13 16 13
17 0 9 -8 -4 -12 -5 -8 0 4 4 2 15 -5 23 -10 13 -9 14 2 8 10 -7 12 -3 6 15
-7 23 -7 23 8 4 15 -19 16 -19 13 8 -3 22 0 27 13 23 11 -4 10 -2 -3 9 -11 8
-15 15 -9 15 6 0 9 9 6 20 -3 12 0 20 6 20 7 0 9 -5 5 -12 -4 -6 -3 -8 4 -5 5
4 9 15 7 25 -1 9 1 25 6 34 6 11 5 18 -4 21 -9 4 -9 6 1 6 6 1 12 8 12 17 0 9
-5 12 -12 8 -10 -6 -10 -4 -2 7 15 20 16 61 1 53 -8 -5 -8 -3 1 7 6 7 12 21
12 32 0 10 5 15 10 12 14 -9 12 6 -3 19 -7 6 -11 10 -9 9 7 -3 42 32 42 42 0
5 -5 3 -10 -5 -5 -8 -10 -11 -10 -7 0 18 33 56 44 50 7 -4 7 -1 -1 8 -10 12
-10 18 0 29 9 10 9 11 0 6 -7 -4 -13 -2 -13 4 0 6 7 13 16 17 13 5 13 7 2 14
-10 7 -9 9 4 9 19 0 18 27 -3 41 -10 7 -7 8 11 3 23 -6 24 -6 10 11 -8 11 -10
16 -4 12 15 -9 24 25 12 47 -9 15 0 21 25 17 5 -1 6 3 2 9 -4 6 -1 18 7 27 9
12 9 15 1 9 -8 -4 -13 -1 -13 8 0 9 6 16 13 16 7 0 8 3 2 8 -12 8 -16 44 -4
37 4 -3 7 4 6 15 -1 11 -5 20 -10 20 -5 0 -3 8 4 17 8 10 9 14 2 10 -7 -5 -6
4 3 23 9 16 23 34 32 40 22 12 6 13 -17 1 -13 -7 -18 -6 -18 4 0 8 4 12 8 9 4
-2 10 5 14 16 3 11 11 20 17 20 6 0 5 -7 -3 -17 -12 -16 -12 -17 2 -6 9 7 19
10 22 6 4 -3 7 -1 7 5 0 7 -4 12 -10 12 -5 0 -10 7 -10 16 0 8 4 13 9 9 6 -3
8 6 5 21 -3 14 -1 23 5 20 11 -7 2 34 -12 51 -6 9 -5 15 6 18 9 4 14 17 12 36
-1 16 1 29 6 29 5 0 9 7 9 16 0 8 4 13 8 10 5 -3 9 1 9 9 0 8 -4 15 -9 15 -5
0 -6 5 -3 10 4 6 12 7 18 3 7 -4 6 0 -2 10 -8 11 -9 17 -3 17 6 0 9 7 6 15 -4
8 -1 22 5 29 7 8 13 35 14 60 1 25 6 46 11 46 4 0 6 16 4 36 -3 25 0 38 11 44
12 6 16 23 15 67 -1 32 1 52 3 46 3 -7 11 -13 20 -13 12 0 12 3 -2 17 -14 14
-15 18 -4 27 8 6 14 20 14 31 0 24 25 56 38 48 5 -3 1 7 -9 22 -18 28 -18 28
4 43 23 15 31 39 10 26 -10 -5 -10 -3 0 7 9 10 15 11 20 2 4 -6 7 18 7 54 -1
41 4 71 13 81 7 10 10 11 6 3 -5 -10 -3 -12 5 -7 9 6 9 11 -1 24 -7 9 -8 13
-2 9 7 -4 14 1 17 12 4 15 1 18 -12 13 -13 -5 -14 -3 -4 10 7 8 9 19 5 24 -4
4 2 2 12 -6 11 -8 17 -10 13 -3 -4 6 -3 14 3 18 5 3 10 12 10 18 0 7 -4 6 -10
-3 -8 -13 -11 -13 -22 -1 -11 11 -11 13 0 6 8 -4 13 -2 11 6 -3 21 12 50 22
43 5 -3 9 0 9 5 0 6 -6 11 -12 11 -9 0 -8 4 2 10 12 8 12 10 1 10 -11 0 -11 3
-1 15 10 12 10 15 -1 15 -8 0 -1 11 15 25 16 14 25 25 20 25 -6 0 -15 -5 -22
-12 -7 -7 -12 -9 -12 -6 0 4 7 14 16 22 12 12 12 16 2 16 -7 0 -2 10 12 21 14
11 19 18 13 14 -8 -4 -13 0 -13 10 0 10 5 14 13 9 9 -5 9 -4 0 6 -9 10 -8 18
4 36 8 13 12 24 8 24 -4 0 -1 7 6 16 12 15 11 16 -11 10 l-25 -7 25 15 c14 9
21 15 16 16 -6 0 -2 6 9 13 14 11 15 16 5 22 -9 6 -11 4 -5 -5 5 -9 4 -11 -4
-6 -9 6 -9 11 0 22 14 17 23 18 13 2 -5 -9 -2 -9 9 1 18 15 23 26 7 16 -5 -3
-10 1 -10 10 0 10 5 13 13 9 8 -5 8 -2 -2 9 -10 13 -10 17 -1 17 9 0 9 4 -1
17 -10 11 -10 14 -1 9 6 -4 12 -3 12 1 0 5 -6 15 -12 22 -11 11 -10 13 0 7 8
-5 14 2 18 23 4 17 10 28 15 25 5 -3 6 3 2 12 -5 13 -3 15 8 9 12 -8 12 -6 0
8 -11 14 -11 17 0 17 9 0 10 3 4 8 -5 4 -11 13 -13 21 -2 11 0 12 10 4 10 -9
13 -5 13 17 1 16 -3 26 -7 24 -5 -3 -5 -10 -2 -16 5 -7 2 -8 -6 -3 -10 6 -9
12 7 24 11 9 17 23 15 31 -5 13 -3 13 14 0 17 -14 18 -14 6 2 -8 9 -10 23 -6
29 4 8 3 9 -4 5 -7 -4 -12 -3 -12 3 0 5 8 12 18 14 16 4 16 5 0 6 -12 1 -15 6
-11 18 5 12 2 15 -10 10 -9 -3 -19 -2 -22 3 -3 5 -13 6 -22 3 -10 -4 -14 -2
-10 4 3 5 0 10 -7 10 -8 0 -12 -6 -9 -12z m-581 -147 c4 -7 4 -10 -1 -6 -4 4
-15 2 -24 -5 -14 -11 -14 -10 -2 6 16 20 18 21 27 5z m-1408 -363 c-3 -3 -9 2
-12 12 -6 14 -5 15 5 6 7 -7 10 -15 7 -18z m-1551 -402 c-4 -3 -1 -13 6 -22
11 -14 10 -14 -5 -2 -16 12 -16 31 -1 31 4 0 3 -3 0 -7z m114 -118 c5 4 6 -1
3 -10 -5 -11 -2 -14 12 -9 16 5 16 4 4 -5 -11 -8 -18 -7 -26 4 -6 8 -14 12
-18 8 -4 -4 -4 1 0 12 5 11 9 14 12 7 2 -7 8 -10 13 -7z m3222 -126 c4 -3 2
-11 -5 -17 -10 -8 -13 -5 -14 15 -1 13 1 21 5 16 3 -4 10 -10 14 -14z m-2993
-93 c0 -2 -7 -7 -16 -10 -8 -3 -12 -2 -9 4 6 10 25 14 25 6z m-2710 -431 c7
-9 8 -15 2 -15 -5 0 -12 7 -16 15 -3 8 -4 15 -2 15 2 0 9 -7 16 -15z m178 -18
c8 -10 6 -13 -11 -14 -12 0 -16 1 -9 4 6 3 10 9 6 14 -8 14 2 11 14 -4z m36
-51 c-3 -9 -10 -13 -15 -10 -5 3 -3 11 4 19 15 16 19 13 11 -9z m21 -16 c3 -5
1 -10 -4 -10 -6 0 -11 5 -11 10 0 6 2 10 4 10 3 0 8 -4 11 -10z m-355 -45
c-13 -16 -34 -10 -24 6 3 5 10 7 15 4 5 -4 9 2 10 12 0 11 3 13 6 5 3 -7 -1
-19 -7 -27z m436 -50 c1 -9 -4 -11 -14 -7 -10 4 -12 7 -4 10 7 2 9 9 5 15 -3
7 -2 8 2 4 5 -4 10 -14 11 -22z m-573 -79 c4 -11 1 -13 -11 -9 -9 3 -14 3 -10
-2 10 -11 -11 -36 -24 -29 -5 3 1 17 13 30 27 28 25 28 32 10z m-90 -90 c4
-10 1 -13 -8 -9 -8 3 -12 9 -9 14 7 12 11 11 17 -5z m2790 -61 c4 -8 3 -16 -1
-19 -4 -3 -9 4 -9 15 -2 23 3 25 10 4z m-2893 -50 c0 -1 -6 -7 -13 -13 -10 -8
-13 -6 -13 7 0 11 6 17 13 14 7 -3 13 -6 13 -8z m1060 -25 c0 -5 -2 -10 -4
-10 -3 0 -8 5 -11 10 -3 6 -1 10 4 10 6 0 11 -4 11 -10z m4855 0 c3 -5 1 -10
-4 -10 -6 0 -11 5 -11 10 0 6 2 10 4 10 3 0 8 -4 11 -10z m-4721 -105 c3 -8 1
-15 -4 -15 -6 0 -10 7 -10 15 0 8 2 15 4 15 2 0 6 -7 10 -15z m4653 -128 c0
-8 -6 -14 -14 -14 -9 0 -10 4 -2 14 6 7 12 13 14 13 1 0 2 -6 2 -13z m-6127
-7 c0 -5 -5 -10 -11 -10 -5 0 -7 5 -4 10 3 6 8 10 11 10 2 0 4 -4 4 -10z m-60
-20 c0 -5 -5 -10 -11 -10 -5 0 -7 5 -4 10 3 6 8 10 11 10 2 0 4 -4 4 -10z m-3
-35 c0 -8 -4 -12 -9 -9 -5 3 -6 10 -3 15 9 13 12 11 12 -6z m1747 -40 c-4 -8
-11 -12 -16 -9 -6 4 -5 10 3 15 19 12 19 11 13 -6z m71 -45 c3 -5 1 -10 -4
-10 -6 0 -11 5 -11 10 0 6 2 10 4 10 3 0 8 -4 11 -10z m182 -190 c14 -11 22
-20 17 -20 -12 1 -61 39 -51 40 5 0 20 -9 34 -20z m570 8 c0 -7 -12 -14 -26
-15 l-26 -1 25 14 c14 7 25 13 26 14 0 0 1 -6 1 -12z m-2890 -28 c1 -11 -2
-22 -6 -24 -6 -4 -7 26 -2 42 3 8 7 -1 8 -18z m2390 -65 c0 -8 -4 -12 -9 -9
-5 3 -6 10 -3 15 9 13 12 11 12 -6z m67 -54 c-3 -3 -10 2 -15 11 -6 10 -16 15
-27 12 -14 -5 -15 -4 -2 5 11 7 19 6 32 -6 10 -9 16 -19 12 -22z m-2610 -45
c-3 -9 -10 -16 -15 -16 -5 0 -4 9 3 20 14 22 21 20 12 -4z m2836 -2 c0 -8 -5
-12 -10 -9 -6 4 -8 11 -5 16 9 14 15 11 15 -7z m3700 2 c0 -3 -4 -8 -10 -11
-5 -3 -10 -1 -10 4 0 6 5 11 10 11 6 0 10 -2 10 -4z m-3740 -45 c0 -5 -7 -12
-16 -15 -14 -5 -15 -4 -4 9 14 17 20 19 20 6z m2940 -11 c0 -5 -2 -10 -4 -10
-3 0 -8 5 -11 10 -3 6 -1 10 4 10 6 0 11 -4 11 -10z m60 -60 c0 -5 -2 -10 -4
-10 -3 0 -8 5 -11 10 -3 6 -1 10 4 10 6 0 11 -4 11 -10z m-5965 -71 c2 -3 -8
-5 -25 -5 -16 0 -27 3 -25 6 5 8 42 6 50 -1z m5577 -83 c6 4 8 2 5 -4 -4 -5
-16 -8 -28 -5 -16 4 -17 8 -7 14 7 5 14 4 16 -1 2 -6 9 -7 14 -4z m640 -80 c7
5 8 3 3 -6 -6 -10 -14 -7 -31 13 -12 14 -25 23 -28 19 -4 -3 -4 2 0 11 6 16 9
14 25 -13 12 -18 24 -28 31 -24z m-6448 -41 c-4 -8 -10 -15 -16 -15 -5 0 -6
-6 -2 -12 4 -7 3 -9 -1 -5 -12 10 -16 39 -5 32 5 -3 11 -1 15 5 9 15 15 12 9
-5z m5556 -114 c0 -5 -9 -13 -20 -16 -12 -4 -17 -11 -14 -18 4 -7 4 -9 -1 -5
-4 4 -14 3 -22 -4 -10 -8 -12 -8 -8 3 3 8 18 21 33 31 34 20 32 20 32 9z
m1060 -21 c-8 -5 -10 -10 -4 -10 7 0 15 -8 18 -17 6 -15 5 -15 -13 1 -21 19
-20 36 2 36 7 0 6 -4 -3 -10z m-1175 -60 c-3 -5 -12 -10 -18 -10 -7 0 -6 4 3
10 19 12 23 12 15 0z m35 6 c0 -3 -4 -8 -10 -11 -5 -3 -10 -1 -10 4 0 6 5 11
10 11 6 0 10 -2 10 -4z m-5760 -81 c0 -12 -19 -12 -23 0 -4 9 -1 12 9 8 7 -3
14 -7 14 -8z m-105 -103 c-3 -3 -11 0 -18 7 -9 10 -8 11 6 5 10 -3 15 -9 12
-12z m-121 -103 c-2 -4 2 -10 8 -12 8 -4 9 -6 2 -6 -6 -1 -17 5 -23 12 -8 10
-7 14 4 14 8 0 12 -4 9 -8z m5526 -133 c0 -3 -4 -8 -10 -11 -5 -3 -10 -1 -10
4 0 6 5 11 10 11 6 0 10 -2 10 -4z m-25 -65 c-8 -7 -45 -9 -50 -1 -2 3 9 6 25
6 17 0 27 -2 25 -5z m-5716 -44 c0 -9 -2 -8 -6 1 -2 6 -10 9 -15 6 -7 -4 -8
-2 -4 5 9 13 26 5 25 -12z m-175 -176 c-2 -3 -12 3 -22 13 -16 17 -16 18 5 5
12 -7 20 -15 17 -18z m5596 -35 c0 -3 -4 -8 -10 -11 -5 -3 -10 -1 -10 4 0 6 5
11 10 11 6 0 10 -2 10 -4z m-5691 -60 c0 -7 -2 -6 -6 2 -2 6 -8 10 -12 8 -4
-3 -8 1 -8 9 0 11 4 12 14 4 7 -6 13 -17 12 -23z m5666 -5 c-3 -2 -17 -6 -32
-7 -20 -2 -23 0 -14 6 15 8 54 10 46 1z m-2994 -94 c-10 -9 -11 -8 -5 6 3 10
9 15 12 12 3 -3 0 -11 -7 -18z m196 -50 c0 -7 -9 -13 -19 -13 -18 0 -18 1 -2
13 10 7 18 13 19 13 1 0 2 -6 2 -13z m-277 -31 c0 -2 -7 -9 -15 -16 -13 -11
-14 -10 -9 4 5 14 24 23 24 12z m2820 -40 c0 -3 -4 -8 -10 -11 -5 -3 -10 -1
-10 4 0 6 5 11 10 11 6 0 10 -2 10 -4z m-2939 -63 c13 -16 12 -17 -3 -4 -17
13 -22 21 -14 21 2 0 10 -8 17 -17z m-133 -153 c-7 -10 -14 -18 -15 -16 -6 6
9 36 18 36 5 0 4 -9 -3 -20z m815 -15 c4 -8 1 -17 -5 -21 -7 -4 -8 -3 -4 4 4
7 2 12 -4 12 -6 0 -8 5 -5 10 8 14 12 13 18 -5z m-3663 -13 c0 -5 -7 -9 -15
-9 -8 0 -12 4 -9 9 3 4 9 8 15 8 5 0 9 -4 9 -8z m5630 -46 c0 -2 -8 -10 -18
-19 -16 -15 -18 -15 -18 1 0 10 8 19 18 19 10 1 18 0 18 -1z m-105 -96 c-11
-5 -16 -9 -12 -9 5 -1 5 -6 2 -11 -4 -6 -11 -8 -16 -4 -14 8 9 34 30 33 12 0
11 -2 -4 -9z m-2901 -38 c3 -5 -1 -9 -9 -9 -8 0 -12 4 -9 9 3 4 7 8 9 8 2 0 6
-4 9 -8z m1316 -76 c0 -3 -4 -8 -10 -11 -5 -3 -10 -1 -10 4 0 6 5 11 10 11 6
0 10 -2 10 -4z m-4245 -46 c-3 -5 -11 -10 -16 -10 -6 0 -7 5 -4 10 3 6 11 10
16 10 6 0 7 -4 4 -10z m5664 -16 c-6 -7 -15 -11 -21 -8 -5 3 -4 12 3 20 6 7
15 11 21 8 5 -3 4 -12 -3 -20z m-5579 -124 c0 19 10 6 15 -19 5 -27 3 -27 -26
6 -13 15 -16 21 -6 14 14 -11 17 -11 17 -1z m5375 -60 c3 -5 1 -10 -4 -10 -6
0 -11 5 -11 10 0 6 2 10 4 10 3 0 8 -4 11 -10z m-5288 -42 c-3 -8 -6 -5 -6 6
-1 11 2 17 5 13 3 -3 4 -12 1 -19z m87 -73 c-4 -8 -11 -12 -16 -9 -6 4 -5 10
3 15 19 12 19 11 13 -6z m5091 -5 c-11 -5 -16 -9 -12 -9 5 -1 5 -6 2 -11 -4
-6 -11 -8 -16 -4 -14 8 9 34 30 33 12 0 11 -2 -4 -9z m-2908 -45 c0 -8 -4 -12
-9 -9 -5 3 -6 10 -3 15 9 13 12 11 12 -6z m-2109 -9 c14 5 14 3 -2 -10 -22
-18 -38 -12 -29 11 4 10 8 12 10 6 3 -7 12 -10 21 -7z m4952 -20 c0 -3 -4 -8
-10 -11 -5 -3 -10 -1 -10 4 0 6 5 11 10 11 6 0 10 -2 10 -4z m-70 -72 c0 0 -9
-9 -19 -19 -19 -16 -20 -16 -18 2 0 11 8 19 19 19 10 0 18 -1 18 -2z m-2969
-87 c-10 -9 -11 -8 -5 6 3 10 9 15 12 12 3 -3 0 -11 -7 -18z m-57 -46 c3 -4
-5 -18 -17 -29 l-23 -22 -1 21 c-1 15 2 19 14 15 11 -4 14 -2 9 9 -6 16 9 21
18 6z m-1501 -108 c-3 -7 -9 -10 -14 -7 -14 8 -11 21 5 21 8 0 12 -6 9 -14z
m1387 -18 c-7 -9 -15 -13 -17 -11 -7 7 7 26 19 26 6 0 6 -6 -2 -15z m-1325
-44 c-6 -5 -25 10 -25 20 0 5 6 4 14 -3 8 -7 12 -15 11 -17z m1180 -111 c-3
-5 -10 -10 -16 -10 -5 0 -9 5 -9 10 0 6 7 10 16 10 8 0 12 -4 9 -10z m-922
-147 c-3 -7 -9 -10 -14 -7 -14 8 -11 21 5 21 8 0 12 -6 9 -14z m62 -61 c-3 -3
-11 0 -18 7 -9 10 -8 11 6 5 10 -3 15 -9 12 -12z m620 -2 c-3 -5 -12 -10 -18
-10 -7 0 -6 4 3 10 19 12 23 12 15 0z m-222 -228 c2 7 7 10 11 7 4 -3 0 -11
-7 -18 -11 -9 -17 -7 -28 6 -13 16 -12 17 3 5 13 -10 17 -10 21 0z m-163 -22
c0 -5 -2 -10 -4 -10 -3 0 -8 5 -11 10 -3 6 -1 10 4 10 6 0 11 -4 11 -10z"/>
<path d="M8893 8125 c0 -7 8 -10 19 -7 10 2 18 6 18 7 0 1 -8 5 -18 7 -11 3
-19 0 -19 -7z"/>
<path d="M8565 8060 c-3 -6 1 -7 9 -4 18 7 21 14 7 14 -6 0 -13 -4 -16 -10z"/>
<path d="M6775 7620 c3 -5 8 -10 11 -10 2 0 4 5 4 10 0 6 -5 10 -11 10 -5 0
-7 -4 -4 -10z"/>
<path d="M9685 7550 c-3 -6 1 -7 9 -4 18 7 21 14 7 14 -6 0 -13 -4 -16 -10z"/>
<path d="M9648 7383 c7 -3 16 -2 19 1 4 3 -2 6 -13 5 -11 0 -14 -3 -6 -6z"/>
<path d="M9600 7230 c-8 -5 -12 -11 -10 -14 3 -2 14 2 24 10 22 15 10 19 -14
4z"/>
<path d="M6587 7050 c6 -7 9 -20 6 -29 -4 -12 -3 -13 5 -3 7 11 10 11 15 -2 4
-9 18 -21 32 -28 23 -10 23 -12 7 -25 -15 -13 -15 -13 6 -3 17 8 20 15 13 28
-5 9 -18 17 -28 17 -10 0 -17 5 -16 10 0 6 -11 19 -25 29 -15 11 -22 13 -15 6z"/>
<path d="M9547 7029 c7 -7 15 -10 18 -7 3 3 -2 9 -12 12 -14 6 -15 5 -6 -5z"/>
<path d="M9510 6936 c0 -2 7 -7 16 -10 8 -3 12 -2 9 4 -6 10 -25 14 -25 6z"/>
<path d="M6707 6665 c3 -8 9 -12 14 -9 12 7 11 11 -5 17 -10 4 -13 1 -9 -8z"/>
<path d="M9446 6615 c-3 -8 0 -17 6 -21 6 -4 8 -3 4 4 -3 5 -1 12 6 14 8 3 9
6 1 11 -6 4 -13 0 -17 -8z"/>
<path d="M3694 6530 c0 -11 6 -22 12 -24 7 -3 10 3 7 15 -7 26 -19 32 -19 9z"/>
<path d="M6515 6500 c-3 -5 -1 -10 4 -10 6 0 11 5 11 10 0 6 -2 10 -4 10 -3 0
-8 -4 -11 -10z"/>
<path d="M6453 6433 c1 -17 4 -19 14 -11 15 12 18 22 4 14 -5 -4 -11 0 -14 6
-3 7 -4 3 -4 -9z"/>
<path d="M3476 6301 c-3 -5 1 -11 9 -14 9 -4 12 -1 8 9 -6 16 -10 17 -17 5z"/>
<path d="M4406 6301 c-3 -4 2 -15 12 -24 13 -12 21 -13 32 -6 13 10 13 10 0 6
-16 -5 -43 17 -33 27 4 3 4 6 0 6 -3 0 -8 -4 -11 -9z"/>
<path d="M6235 6220 c-3 -5 -1 -10 4 -10 6 0 11 5 11 10 0 6 -2 10 -4 10 -3 0
-8 -4 -11 -10z"/>
<path d="M3196 6049 c2 -4 -4 -12 -13 -18 -10 -6 -13 -11 -6 -11 10 0 43 26
43 34 0 1 -7 3 -15 3 -8 0 -12 -4 -9 -8z"/>
<path d="M4725 6000 c-3 -5 -1 -10 4 -10 6 0 11 5 11 10 0 6 -2 10 -4 10 -3 0
-8 -4 -11 -10z"/>
<path d="M3117 5986 c-3 -8 -2 -18 3 -21 13 -8 20 9 11 24 -6 10 -10 9 -14 -3z"/>
<path d="M4810 5901 c0 -5 5 -13 10 -16 6 -3 10 -2 10 4 0 5 -4 13 -10 16 -5
3 -10 2 -10 -4z"/>
<path d="M5830 5830 c-13 -8 -13 -10 2 -10 9 0 20 5 23 10 8 13 -5 13 -25 0z"/>
<path d="M2940 5790 c-8 -5 -10 -10 -5 -10 6 0 17 5 25 10 8 5 11 10 5 10 -5
0 -17 -5 -25 -10z"/>
<path d="M2850 5706 c4 -4 16 -4 26 2 16 9 14 10 -8 9 -15 -1 -23 -6 -18 -11z"/>
<path d="M5176 5547 c3 -10 9 -15 12 -12 3 3 0 11 -7 18 -10 9 -11 8 -5 -6z"/>
<path d="M5518 5530 c-16 -15 -16 -16 2 -16 10 0 17 2 14 5 -2 3 6 11 18 17
21 12 21 13 3 11 -11 0 -28 -8 -37 -17z"/>
<path d="M5482 5486 c7 -8 17 -12 22 -9 4 3 2 9 -5 14 -22 13 -31 11 -17 -5z"/>
<path d="M9170 5486 c0 -2 7 -7 16 -10 8 -3 12 -2 9 4 -6 10 -25 14 -25 6z"/>
<path d="M9105 5309 c-10 -15 3 -25 16 -12 7 7 7 13 1 17 -6 3 -14 1 -17 -5z"/>
<path d="M8415 5280 c-4 -6 -1 -9 7 -8 7 2 12 -3 10 -10 -1 -8 2 -11 8 -7 5 3
10 -1 10 -9 0 -9 5 -16 10 -16 13 0 -2 31 -24 49 -10 8 -16 9 -21 1z"/>
<path d="M8475 5220 c-3 -5 -1 -10 4 -10 6 0 11 5 11 10 0 6 -2 10 -4 10 -3 0
-8 -4 -11 -10z"/>
<path d="M8530 5180 c0 -5 5 -10 11 -10 5 0 7 5 4 10 -3 6 -8 10 -11 10 -2 0
-4 -4 -4 -10z"/>
<path d="M2283 5134 c0 -17 2 -22 7 -13 5 6 6 18 3 26 -8 19 -10 16 -10 -13z"/>
<path d="M8690 5020 c0 -5 5 -10 11 -10 5 0 7 5 4 10 -3 6 -8 10 -11 10 -2 0
-4 -4 -4 -10z"/>
<path d="M8730 4959 c0 -5 5 -7 10 -4 6 3 10 8 10 11 0 2 -4 4 -10 4 -5 0 -10
-5 -10 -11z"/>
<path d="M8750 4940 c0 -5 7 -10 16 -10 8 0 13 -4 10 -9 -7 -11 20 -8 31 3 4
4 4 6 -2 5 -5 -2 -20 2 -32 9 -15 8 -23 9 -23 2z"/>
<path d="M1980 4859 c0 -5 5 -7 10 -4 6 3 10 8 10 11 0 2 -4 4 -10 4 -5 0 -10
-5 -10 -11z"/>
<path d="M9005 4850 c-3 -6 1 -7 9 -4 18 7 21 14 7 14 -6 0 -13 -4 -16 -10z"/>
<path d="M7610 4778 c-12 -22 -12 -22 6 -6 10 10 15 20 12 24 -4 3 -12 -5 -18
-18z"/>
<path d="M7595 4739 c-4 -6 -5 -12 -2 -15 2 -3 7 2 10 11 7 17 1 20 -8 4z"/>
<path d="M1850 4729 c0 -5 5 -7 10 -4 6 3 10 8 10 11 0 2 -4 4 -10 4 -5 0 -10
-5 -10 -11z"/>
<path d="M7520 4690 c-8 -5 -10 -10 -5 -10 6 0 17 5 25 10 8 5 11 10 5 10 -5
0 -17 -5 -25 -10z"/>
<path d="M1744 4635 c3 -8 1 -15 -3 -15 -5 0 -12 -8 -15 -17 -6 -15 -5 -15 13
1 17 15 19 46 4 46 -3 0 -3 -7 1 -15z"/>
<path d="M7435 4604 c-19 -19 -19 -21 -1 -21 8 0 14 5 13 11 -1 6 6 10 16 8
21 -4 23 4 2 12 -8 3 -21 -2 -30 -10z"/>
<path d="M1647 4536 c-3 -8 -3 -17 0 -20 9 -9 34 15 27 25 -8 13 -21 11 -27
-5z"/>
<path d="M7377 4533 c-10 -9 -9 -23 1 -23 5 0 9 7 9 15 0 17 -1 18 -10 8z"/>
<path d="M1610 4489 c0 -5 -4 -8 -9 -4 -5 3 -12 1 -15 -4 -12 -19 12 -20 29
-1 10 12 13 20 7 20 -7 0 -12 -5 -12 -11z"/>
<path d="M7307 4477 c-3 -8 -2 -20 3 -26 5 -9 8 -4 8 13 0 29 -3 32 -11 13z"/>
<path d="M7222 4391 c-11 -7 -11 -9 0 -14 9 -3 15 1 15 9 0 8 -1 14 -1 14 -1
0 -7 -4 -14 -9z"/>
<path d="M1370 4249 c0 -5 5 -7 10 -4 6 3 10 8 10 11 0 2 -4 4 -10 4 -5 0 -10
-5 -10 -11z"/>
<path d="M6995 4164 c-12 -12 -13 -19 -4 -30 6 -8 14 -14 16 -14 3 0 0 7 -7
15 -11 13 -8 19 11 17 3 -1 6 6 6 14 0 18 -2 18 -22 -2z"/>
<path d="M6900 4070 c-9 -6 -10 -10 -3 -10 6 0 15 5 18 10 8 12 4 12 -15 0z"/>
<path d="M1110 4016 c0 -2 7 -7 16 -10 8 -3 12 -2 9 4 -6 10 -25 14 -25 6z"/>
<path d="M6706 3881 c-4 -5 -2 -12 3 -15 5 -4 12 -2 15 3 4 5 2 12 -3 15 -5 4
-12 2 -15 -3z"/>
<path d="M873 3798 c1 -7 -4 -12 -10 -10 -7 1 -13 -2 -13 -8 0 -13 17 -13 25
0 4 6 12 7 18 3 7 -4 6 0 -2 10 -16 20 -22 22 -18 5z"/>
<path d="M3760 3780 c-9 -6 -10 -10 -3 -10 6 0 15 5 18 10 8 12 4 12 -15 0z"/>
<path d="M6501 3696 c-8 -10 -9 -16 -1 -21 6 -4 9 -1 8 7 -2 7 3 12 10 11 6
-2 12 2 12 7 0 14 -16 12 -29 -4z"/>
<path d="M770 3680 c-8 -5 -12 -12 -9 -15 4 -3 12 1 19 10 14 17 11 19 -10 5z"/>
<path d="M4275 3642 c4 -4 12 -7 18 -7 7 -1 11 -7 9 -14 -1 -7 2 -9 9 -6 13 9
-3 28 -27 31 -9 1 -13 -1 -9 -4z"/>
<path d="M646 3548 c3 -5 10 -6 15 -3 13 9 11 12 -6 12 -8 0 -12 -4 -9 -9z"/>
<path d="M550 3481 c0 -5 7 -12 16 -15 14 -5 15 -4 4 9 -14 17 -20 19 -20 6z"/>
<path d="M4453 3466 c-3 -5 -1 -6 5 -2 7 4 12 2 12 -4 0 -6 5 -8 10 -5 6 3 10
2 10 -3 0 -5 12 -14 28 -21 l27 -11 -28 21 c-15 11 -25 24 -23 28 3 4 -4 7
-15 7 -11 0 -23 -5 -26 -10z"/>
<path d="M465 3391 c-3 -5 -2 -12 3 -15 5 -3 9 1 9 9 0 17 -3 19 -12 6z"/>
<path d="M6190 3382 c0 -4 9 -8 19 -8 11 0 17 4 15 8 -3 4 -12 8 -20 8 -8 0
-14 -4 -14 -8z"/>
<path d="M3310 3365 c0 -7 30 -13 34 -7 3 4 -4 9 -15 9 -10 1 -19 0 -19 -2z"/>
<path d="M3276 3298 c3 -5 10 -6 15 -3 13 9 11 12 -6 12 -8 0 -12 -4 -9 -9z"/>
<path d="M6026 3226 c2 -6 13 -12 24 -12 23 0 17 12 -9 19 -12 3 -18 0 -15 -7z"/>
<path d="M6001 3202 c-17 -31 -13 -40 5 -14 9 13 14 26 11 29 -3 2 -10 -4 -16
-15z"/>
<path d="M390 3196 c0 -2 7 -7 16 -10 8 -3 12 -2 9 4 -6 10 -25 14 -25 6z"/>
<path d="M3130 3159 c0 -5 5 -7 10 -4 6 3 10 8 10 11 0 2 -4 4 -10 4 -5 0 -10
-5 -10 -11z"/>
<path d="M4774 3149 c-4 -7 -3 -9 4 -5 5 3 13 0 15 -6 4 -9 6 -10 6 -1 1 17
-16 25 -25 12z"/>
<path d="M5936 3142 c-3 -5 1 -9 9 -9 8 0 12 4 9 9 -3 4 -7 8 -9 8 -2 0 -6 -4
-9 -8z"/>
<path d="M4990 2950 c0 -5 5 -10 11 -10 5 0 7 5 4 10 -3 6 -8 10 -11 10 -2 0
-4 -4 -4 -10z"/>
<path d="M2870 2920 c0 -4 7 -7 15 -6 23 3 26 12 5 13 -11 1 -20 -2 -20 -7z"/>
<path d="M2755 2820 c-3 -5 -3 -10 1 -10 4 0 -1 -9 -11 -20 -10 -11 -15 -20
-11 -20 14 0 33 25 33 43 0 19 -3 21 -12 7z"/>
<path d="M870 2760 c0 -5 5 -10 10 -10 6 0 10 5 10 10 0 6 -4 10 -10 10 -5 0
-10 -4 -10 -10z"/>
<path d="M2710 2751 c0 -6 4 -12 8 -15 5 -3 9 1 9 9 0 8 -4 15 -9 15 -4 0 -8
-4 -8 -9z"/>
<path d="M5227 2753 c-7 -11 34 -58 58 -66 19 -7 19 -7 0 9 -11 8 -19 19 -18
24 3 11 -34 43 -40 33z m24 -20 c13 -16 12 -17 -3 -4 -10 7 -18 15 -18 17 0 8
8 3 21 -13z"/>
<path d="M5546 2742 c-3 -5 1 -9 9 -9 8 0 12 4 9 9 -3 4 -7 8 -9 8 -2 0 -6 -4
-9 -8z"/>
<path d="M5495 2701 c-3 -5 -2 -12 3 -15 5 -3 9 1 9 9 0 17 -3 19 -12 6z"/>
<path d="M970 2665 c0 -8 5 -15 10 -15 6 0 10 -7 10 -15 0 -8 4 -15 8 -15 15
0 9 24 -10 43 -15 14 -18 14 -18 2z"/>
<path d="M5310 2651 c0 -6 4 -13 10 -16 6 -3 7 1 4 9 -7 18 -14 21 -14 7z"/>
<path d="M5370 2620 c0 -5 5 -10 11 -10 5 0 7 5 4 10 -3 6 -8 10 -11 10 -2 0
-4 -4 -4 -10z"/>
<path d="M1116 2482 c-3 -5 1 -9 9 -9 8 0 12 4 9 9 -3 4 -7 8 -9 8 -2 0 -6 -4
-9 -8z"/>
<path d="M1253 2375 c0 -8 4 -12 9 -9 5 3 6 10 3 15 -9 13 -12 11 -12 -6z"/>
<path d="M1290 2345 c0 -8 5 -15 10 -15 6 0 10 -7 10 -15 0 -8 4 -15 8 -15 15
0 9 24 -10 43 -15 14 -18 14 -18 2z"/>
<path d="M1530 2105 c0 -8 4 -15 10 -15 5 0 7 7 4 15 -4 8 -8 15 -10 15 -2 0
-4 -7 -4 -15z"/>
<path d="M1594 2041 c4 -5 3 -11 -1 -14 -5 -2 -2 -2 5 -1 6 2 12 -1 12 -6 0
-6 7 -10 15 -10 12 0 11 4 -5 20 -21 21 -35 27 -26 11z"/>
<path d="M1926 2021 c-3 -5 1 -11 9 -14 9 -4 12 -1 8 9 -6 16 -10 17 -17 5z"/>
<path d="M1639 1963 c-13 -16 -12 -17 4 -4 9 7 17 15 17 17 0 8 -8 3 -21 -13z"/>
</g>
</svg>
