<?xml version="1.0" standalone="no"?>
<!DOCTYPE svg PUBLIC "-//W3C//DTD SVG 20010904//EN"
 "http://www.w3.org/TR/2001/REC-SVG-20010904/DTD/svg10.dtd">
<svg version="1.0" xmlns="http://www.w3.org/2000/svg"
 width="1024.000000pt" height="1024.000000pt" viewBox="0 0 1024.000000 1024.000000"
 preserveAspectRatio="xMidYMid meet">
<metadata>
Created by potrace 1.14, written by Peter Selinger 2001-2017
</metadata>
<g transform="translate(0.000000,1024.000000) scale(0.100000,-0.100000)"
fill="#000000" stroke="none">
<path d="M5075 7984 c-5 -2 -53 -10 -105 -18 -145 -23 -160 -26 -235 -48 -242
-70 -433 -166 -607 -305 -409 -326 -593 -795 -544 -1388 7 -85 8 -92 32 -225
22 -123 119 -493 151 -577 4 -10 -61 -13 -288 -15 l-294 -3 0 -275 0 -275 371
-3 372 -2 16 -68 c36 -153 45 -244 42 -447 -2 -110 -6 -209 -9 -220 -2 -11 -8
-40 -12 -65 -30 -195 -114 -415 -217 -569 -155 -232 -352 -425 -567 -555 -53
-33 -59 -39 -51 -59 4 -12 41 -101 80 -197 39 -96 80 -198 90 -227 10 -29 25
-67 33 -85 8 -18 22 -52 32 -75 l18 -42 41 25 c201 123 550 256 766 291 170
27 221 31 380 28 96 -2 186 -5 200 -8 14 -3 46 -8 72 -12 60 -7 191 -41 433
-112 353 -103 558 -159 612 -167 118 -18 162 -21 303 -21 182 0 254 8 403 46
100 25 169 49 339 115 75 30 141 54 146 54 5 0 15 6 21 14 14 16 18 2 -69 246
-29 80 -68 192 -88 250 -21 58 -40 110 -45 117 -5 8 -37 -2 -109 -34 -98 -43
-304 -116 -358 -127 -14 -3 -58 -11 -99 -19 -151 -30 -410 -6 -736 69 -11 3
-40 9 -65 14 -25 5 -103 23 -175 40 -146 34 -305 67 -368 76 -289 40 -502 43
-694 10 -18 -3 -45 -8 -60 -11 -16 -2 -62 -13 -103 -24 -41 -10 -77 -17 -79
-15 -2 2 27 38 65 81 327 368 516 743 579 1148 14 86 14 280 0 345 -14 62 -35
136 -50 173 -7 16 22 17 529 17 l536 0 0 280 0 280 -594 0 -594 0 -11 28 c-18
46 -114 394 -127 462 -3 14 -10 45 -15 70 -77 343 -83 642 -17 832 95 277 347
511 630 587 108 29 131 32 273 36 187 4 317 -22 460 -93 248 -123 435 -342
518 -607 31 -99 54 -199 56 -253 1 -10 12 -11 44 -7 23 4 53 8 67 10 25 4 126
19 235 36 33 5 80 11 105 15 25 3 56 7 70 10 14 2 43 6 65 9 22 3 49 8 60 10
11 2 24 4 28 4 24 3 -54 313 -117 465 -89 215 -178 349 -336 507 -246 247
-515 374 -935 444 -42 7 -483 15 -500 9z"/>
</g>
</svg>
